# Blender 4.2.3 LTS
# www.blender.org
mtllib cap.mtl
o Sphere
v 0.000000 0.555570 0.831470
v 0.000000 0.831470 0.555570
v 0.000000 0.980785 0.195090
v 0.000000 1.000000 0.000000
v 0.038060 0.191342 0.980785
v 0.074658 0.375330 0.923880
v 0.108386 0.544895 0.831470
v 0.137950 0.693520 0.707107
v 0.162212 0.815493 0.555570
v 0.180240 0.906127 0.382683
v 0.191342 0.961940 0.195090
v 0.195090 0.980785 0.000000
v 0.074658 0.180240 0.980785
v 0.146447 0.353553 0.923880
v 0.212608 0.513280 0.831470
v 0.270598 0.653281 0.707107
v 0.318190 0.768178 0.555570
v 0.353553 0.853553 0.382683
v 0.375330 0.906127 0.195090
v 0.382683 0.923879 0.000000
v 0.108386 0.162212 0.980785
v 0.212608 0.318190 0.923880
v 0.308658 0.461940 0.831470
v 0.392847 0.587938 0.707107
v 0.461940 0.691342 0.555570
v 0.513280 0.768178 0.382683
v 0.544895 0.815493 0.195090
v 0.555570 0.831469 0.000000
v 0.137950 0.137950 0.980785
v 0.270598 0.270598 0.923880
v 0.392847 0.392847 0.831470
v 0.500000 0.500000 0.707107
v 0.587938 0.587938 0.555570
v 0.653281 0.653281 0.382683
v 0.693520 0.693520 0.195090
v 0.707107 0.707107 0.000000
v 0.162212 0.108386 0.980785
v 0.318190 0.212608 0.923880
v 0.461940 0.308658 0.831470
v 0.587938 0.392847 0.707107
v 0.691342 0.461940 0.555570
v 0.768178 0.513280 0.382683
v 0.815493 0.544895 0.195090
v 0.831470 0.555570 0.000000
v 0.000000 0.000000 1.000000
v 0.180240 0.074658 0.980785
v 0.353553 0.146447 0.923880
v 0.513280 0.212607 0.831470
v 0.653281 0.270598 0.707107
v 0.768178 0.318190 0.555570
v 0.853553 0.353553 0.382683
v 0.906127 0.375330 0.195090
v 0.923879 0.382683 0.000000
v 0.191342 0.038060 0.980785
v 0.375330 0.074658 0.923880
v 0.544895 0.108386 0.831470
v 0.693520 0.137950 0.707107
v 0.815493 0.162212 0.555570
v 0.906127 0.180240 0.382683
v 0.961940 0.191342 0.195090
v 0.980785 0.195090 0.000000
v 0.195090 -0.000000 0.980785
v 0.382683 -0.000000 0.923880
v 0.555570 -0.000000 0.831470
v 0.707107 0.000000 0.707107
v 0.831469 -0.000000 0.555570
v 0.923879 0.000000 0.382683
v 0.980785 -0.000000 0.195090
v 1.000000 -0.000000 0.000000
v 0.191342 -0.038060 0.980785
v 0.375330 -0.074658 0.923880
v 0.544895 -0.108386 0.831470
v 0.693520 -0.137950 0.707107
v 0.815493 -0.162212 0.555570
v 0.906127 -0.180240 0.382683
v 0.961940 -0.191342 0.195090
v 0.980785 -0.195090 0.000000
v 0.180240 -0.074658 0.980785
v 0.353553 -0.146447 0.923880
v 0.513280 -0.212608 0.831470
v 0.653281 -0.270598 0.707107
v 0.768178 -0.318190 0.555570
v 0.853553 -0.353553 0.382683
v 0.906127 -0.375330 0.195090
v 0.923879 -0.382683 0.000000
v 0.162212 -0.108386 0.980785
v 0.318190 -0.212608 0.923880
v 0.461940 -0.308658 0.831470
v 0.587938 -0.392847 0.707107
v 0.691341 -0.461940 0.555570
v 0.768178 -0.513280 0.382683
v 0.815493 -0.544895 0.195090
v 0.831469 -0.555570 0.000000
v 0.137950 -0.137950 0.980785
v 0.270598 -0.270598 0.923880
v 0.392847 -0.392847 0.831470
v 0.500000 -0.500000 0.707107
v 0.587938 -0.587938 0.555570
v 0.653281 -0.653281 0.382683
v 0.693520 -0.693520 0.195090
v 0.707106 -0.707107 0.000000
v 0.108386 -0.162212 0.980785
v 0.212607 -0.318190 0.923880
v 0.308658 -0.461940 0.831470
v 0.392847 -0.587938 0.707107
v 0.461940 -0.691342 0.555570
v 0.513280 -0.768178 0.382683
v 0.544895 -0.815493 0.195090
v 0.555570 -0.831469 0.000000
v 0.074658 -0.180240 0.980785
v 0.146447 -0.353553 0.923880
v 0.212607 -0.513280 0.831470
v 0.270598 -0.653281 0.707107
v 0.318189 -0.768178 0.555570
v 0.353553 -0.853553 0.382683
v 0.375330 -0.906127 0.195090
v 0.382683 -0.923879 0.000000
v 0.038060 -0.191342 0.980785
v 0.074658 -0.375330 0.923880
v 0.108386 -0.544895 0.831470
v 0.137950 -0.693520 0.707107
v 0.162212 -0.815493 0.555570
v 0.180240 -0.906127 0.382683
v 0.191342 -0.961939 0.195090
v 0.195090 -0.980785 0.000000
v -0.000000 -0.195090 0.980785
v -0.000000 -0.382683 0.923880
v -0.000000 -0.555570 0.831470
v -0.000000 -0.707107 0.707107
v -0.000000 -0.831469 0.555570
v 0.000000 -0.923879 0.382683
v -0.000000 -0.980785 0.195090
v -0.000000 -0.999999 0.000000
v -0.038060 -0.191342 0.980785
v -0.074658 -0.375330 0.923880
v -0.108386 -0.544895 0.831470
v -0.137950 -0.693520 0.707107
v -0.162212 -0.815493 0.555570
v -0.180240 -0.906127 0.382683
v -0.191342 -0.961939 0.195090
v -0.195091 -0.980785 0.000000
v -0.074658 -0.180240 0.980785
v -0.146447 -0.353553 0.923880
v -0.212608 -0.513280 0.831470
v -0.270598 -0.653281 0.707107
v -0.318190 -0.768177 0.555570
v -0.353553 -0.853553 0.382683
v -0.375330 -0.906127 0.195090
v -0.382683 -0.923879 0.000000
v -0.108386 -0.162212 0.980785
v -0.212608 -0.318190 0.923880
v -0.308658 -0.461939 0.831470
v -0.392847 -0.587938 0.707107
v -0.461940 -0.691341 0.555570
v -0.513280 -0.768178 0.382683
v -0.544895 -0.815493 0.195090
v -0.555570 -0.831469 0.000000
v -0.137950 -0.137950 0.980785
v -0.270598 -0.270598 0.923880
v -0.392847 -0.392847 0.831470
v -0.500000 -0.500000 0.707107
v -0.587938 -0.587937 0.555570
v -0.653281 -0.653281 0.382683
v -0.693520 -0.693520 0.195090
v -0.707106 -0.707106 0.000000
v -0.162212 -0.108386 0.980785
v -0.318190 -0.212607 0.923880
v -0.461940 -0.308658 0.831470
v -0.587938 -0.392847 0.707107
v -0.691341 -0.461939 0.555570
v -0.768177 -0.513280 0.382683
v -0.815493 -0.544895 0.195090
v -0.831469 -0.555569 0.000000
v -0.180240 -0.074658 0.980785
v -0.353553 -0.146447 0.923880
v -0.513280 -0.212607 0.831470
v -0.653281 -0.270598 0.707107
v -0.768177 -0.318189 0.555570
v -0.853553 -0.353553 0.382683
v -0.906127 -0.375330 0.195090
v -0.923879 -0.382683 0.000000
v -0.191342 -0.038060 0.980785
v -0.375330 -0.074658 0.923880
v -0.544895 -0.108386 0.831470
v -0.693520 -0.137950 0.707107
v -0.815493 -0.162211 0.555570
v -0.906127 -0.180240 0.382683
v -0.961939 -0.191341 0.195090
v -0.980784 -0.195090 0.000000
v -0.195090 0.000000 0.980785
v -0.382683 0.000000 0.923880
v -0.555570 0.000000 0.831470
v -0.707107 0.000000 0.707107
v -0.831469 0.000000 0.555570
v -0.923879 0.000000 0.382683
v -0.980785 0.000000 0.195090
v -0.999999 0.000000 0.000000
v -0.191342 0.038060 0.980785
v -0.375330 0.074658 0.923880
v -0.544895 0.108386 0.831470
v -0.693520 0.137950 0.707107
v -0.815493 0.162212 0.555570
v -0.906127 0.180240 0.382683
v -0.961939 0.191342 0.195090
v -0.980784 0.195091 0.000000
v -0.180240 0.074658 0.980785
v -0.353553 0.146447 0.923880
v -0.513279 0.212607 0.831470
v -0.653281 0.270598 0.707107
v -0.768177 0.318190 0.555570
v -0.853553 0.353553 0.382683
v -0.906127 0.375330 0.195090
v -0.923878 0.382683 0.000000
v -0.162212 0.108386 0.980785
v -0.318189 0.212607 0.923880
v -0.461939 0.308658 0.831470
v -0.587938 0.392847 0.707107
v -0.691341 0.461940 0.555570
v -0.768177 0.513280 0.382683
v -0.815493 0.544895 0.195090
v -0.831468 0.555570 0.000000
v -0.137950 0.137950 0.980785
v -0.270598 0.270598 0.923880
v -0.392847 0.392847 0.831470
v -0.500000 0.500000 0.707107
v -0.587937 0.587938 0.555570
v -0.653281 0.653281 0.382683
v -0.693519 0.693520 0.195090
v -0.707106 0.707106 0.000000
v -0.108386 0.162212 0.980785
v -0.212607 0.318190 0.923880
v -0.308658 0.461939 0.831470
v -0.392847 0.587938 0.707107
v -0.461939 0.691341 0.555570
v -0.513280 0.768177 0.382683
v -0.544895 0.815493 0.195090
v -0.555569 0.831469 0.000000
v -0.074658 0.180240 0.980785
v -0.146446 0.353553 0.923880
v -0.212607 0.513279 0.831470
v -0.270598 0.653281 0.707107
v -0.318189 0.768177 0.555570
v -0.353553 0.853553 0.382683
v -0.375330 0.906127 0.195090
v -0.382683 0.923879 0.000000
v -0.038060 0.191342 0.980785
v -0.074658 0.375330 0.923880
v -0.108386 0.544895 0.831470
v -0.137950 0.693520 0.707107
v -0.162211 0.815493 0.555570
v -0.180240 0.906127 0.382683
v -0.191341 0.961939 0.195090
v -0.195090 0.980784 0.000000
v 0.000000 0.195090 0.980785
v 0.000000 0.382683 0.923880
v 0.000000 0.707107 0.707107
v 0.000000 0.923879 0.382683
vn 0.0464 -0.4709 -0.8810
vn -0.1374 -0.4528 -0.8810
vn -0.1847 -0.6088 -0.7715
vn -0.2248 -0.7412 -0.6326
vn -0.2563 -0.8448 -0.4696
vn -0.2779 -0.9161 -0.2890
vn -0.0097 -0.0980 -0.9951
vn 0.0286 -0.2902 -0.9565
vn -0.0286 -0.2902 -0.9565
vn -0.1374 -0.2571 -0.9565
vn -0.2231 -0.4173 -0.8810
vn -0.2999 -0.5611 -0.7715
vn -0.3651 -0.6831 -0.6326
vn 0.7693 -0.6314 -0.0975
vn -0.4513 -0.8443 -0.2890
vn -0.0286 -0.0942 -0.9951
vn 0.4162 -0.7786 -0.4696
vn -0.0975 -0.9904 -0.0975
vn -0.6073 -0.7400 -0.2890
vn -0.0464 -0.0869 -0.9951
vn -0.0846 -0.2790 -0.9565
vn -0.1850 -0.2254 -0.9565
vn -0.3002 -0.3658 -0.8810
vn -0.4036 -0.4918 -0.7715
vn -0.2254 -0.1850 -0.9565
vn -0.3658 -0.3002 -0.8810
vn 0.2248 -0.7412 -0.6326
vn -0.4162 -0.7786 -0.4696
vn -0.2889 -0.9524 -0.0976
vn -0.7400 -0.6073 -0.2890
vn -0.0625 -0.0761 -0.9951
vn 0.6314 -0.7693 -0.0975
vn -0.4691 -0.8777 -0.0975
vn -0.8443 -0.4513 -0.2890
vn -0.0761 -0.0625 -0.9951
vn -0.0286 0.2902 -0.9565
vn -0.2571 -0.1374 -0.9565
vn 0.0624 -0.6332 -0.7715
vn -0.4913 -0.5987 -0.6326
vn -0.5601 -0.6825 -0.4696
vn -0.0464 -0.4709 -0.8810
vn -0.4918 -0.4036 -0.7715
vn -0.5987 -0.4913 -0.6326
vn -0.6825 -0.5601 -0.4696
vn -0.6314 -0.7693 -0.0975
vn -0.9161 -0.2779 -0.2890
vn -0.0869 -0.0464 -0.9951
vn 0.2889 -0.9524 -0.0975
vn -0.7693 -0.6314 -0.0975
vn -0.9527 -0.0938 -0.2890
vn -0.0942 -0.0286 -0.9951
vn 0.4691 -0.8777 -0.0975
vn -0.4173 -0.2230 -0.8810
vn -0.5611 -0.2999 -0.7715
vn -0.6831 -0.3651 -0.6326
vn -0.7786 -0.4162 -0.4696
vn -0.6088 -0.1847 -0.7715
vn -0.7412 -0.2248 -0.6326
vn -0.8448 -0.2563 -0.4696
vn -0.8777 -0.4691 -0.0975
vn -0.9527 0.0938 -0.2890
vn -0.0980 -0.0097 -0.9951
vn -0.2790 -0.0846 -0.9565
vn -0.4528 -0.1374 -0.8810
vn -0.9161 0.2779 -0.2890
vn -0.0980 0.0097 -0.9951
vn -0.2902 -0.0286 -0.9565
vn -0.4709 -0.0464 -0.8810
vn -0.6332 -0.0624 -0.7715
vn -0.7708 -0.0759 -0.6326
vn -0.8786 -0.0865 -0.4696
vn -0.9524 -0.2889 -0.0975
vn -0.6332 0.0624 -0.7715
vn -0.7708 0.0759 -0.6326
vn -0.8786 0.0865 -0.4696
vn -0.9904 -0.0975 -0.0975
vn -0.8443 0.4513 -0.2890
vn -0.0942 0.0286 -0.9951
vn -0.2902 0.0286 -0.9565
vn -0.4709 0.0464 -0.8810
vn -0.7400 0.6073 -0.2890
vn -0.0869 0.0464 -0.9951
vn -0.2790 0.0846 -0.9565
vn -0.4528 0.1374 -0.8810
vn -0.6088 0.1847 -0.7715
vn -0.7412 0.2248 -0.6326
vn -0.8448 0.2563 -0.4696
vn -0.9904 0.0976 -0.0975
vn -0.6831 0.3651 -0.6326
vn -0.7786 0.4162 -0.4696
vn 0.9904 0.0976 -0.0975
vn -0.6073 0.7400 -0.2890
vn -0.0761 0.0625 -0.9951
vn -0.2571 0.1374 -0.9565
vn -0.4173 0.2231 -0.8810
vn -0.5611 0.2999 -0.7715
vn -0.2254 0.1850 -0.9565
vn -0.3658 0.3002 -0.8810
vn -0.4918 0.4036 -0.7715
vn -0.5987 0.4913 -0.6326
vn -0.9524 0.2889 -0.0975
vn -0.8777 0.4691 -0.0975
vn -0.4513 0.8443 -0.2890
vn -0.0625 0.0761 -0.9951
vn -0.5601 0.6825 -0.4696
vn -0.7693 0.6314 -0.0975
vn -0.2779 0.9161 -0.2890
vn -0.0464 0.0869 -0.9951
vn -0.1850 0.2254 -0.9565
vn -0.3002 0.3658 -0.8810
vn -0.4036 0.4918 -0.7715
vn -0.6825 0.5601 -0.4696
vn -0.1374 0.2571 -0.9565
vn -0.2230 0.4173 -0.8810
vn -0.4913 0.5987 -0.6326
vn -0.3651 0.6831 -0.6326
vn -0.4162 0.7786 -0.4696
vn -0.6314 0.7693 -0.0975
vn -0.0938 0.9527 -0.2890
vn -0.0286 0.0942 -0.9951
vn -0.2563 0.8448 -0.4696
vn -0.4691 0.8777 -0.0975
vn 0.0938 0.9527 -0.2890
vn -0.0097 0.0980 -0.9951
vn -0.0846 0.2790 -0.9565
vn -0.1847 0.6088 -0.7715
vn -0.2248 0.7412 -0.6326
vn -0.0464 0.4709 -0.8810
vn -0.0624 0.6332 -0.7715
vn -0.0759 0.7708 -0.6326
vn -0.0865 0.8786 -0.4696
vn -0.2889 0.9524 -0.0975
vn 0.2779 0.9161 -0.2890
vn 0.0097 0.0980 -0.9951
vn -0.1374 0.4528 -0.8810
vn -0.0975 0.9904 -0.0975
vn 0.4513 0.8443 -0.2890
vn 0.0286 0.0942 -0.9951
vn 0.0286 0.2902 -0.9565
vn 0.0464 0.4709 -0.8810
vn 0.0624 0.6332 -0.7715
vn 0.0759 0.7708 -0.6326
vn 0.0865 0.8786 -0.4696
vn 0.1374 0.4528 -0.8810
vn 0.1847 0.6088 -0.7715
vn 0.2248 0.7412 -0.6326
vn 0.2563 0.8448 -0.4696
vn 0.0976 0.9904 -0.0975
vn 0.6073 0.7400 -0.2890
vn 0.0464 0.0869 -0.9951
vn 0.0846 0.2790 -0.9565
vn 0.2889 0.9524 -0.0975
vn 0.7400 0.6073 -0.2890
vn 0.0625 0.0761 -0.9951
vn 0.1374 0.2571 -0.9565
vn 0.2230 0.4173 -0.8810
vn 0.2999 0.5611 -0.7715
vn 0.3651 0.6831 -0.6326
vn 0.4162 0.7786 -0.4696
vn 0.4036 0.4918 -0.7715
vn 0.4913 0.5987 -0.6326
vn 0.5601 0.6825 -0.4696
vn 0.4691 0.8777 -0.0975
vn 0.8443 0.4513 -0.2890
vn 0.0761 0.0625 -0.9951
vn 0.1850 0.2254 -0.9565
vn 0.3002 0.3658 -0.8810
vn 0.9161 0.2779 -0.2890
vn 0.0869 0.0464 -0.9951
vn 0.2254 0.1850 -0.9565
vn 0.3658 0.3002 -0.8810
vn 0.4918 0.4036 -0.7715
vn 0.5987 0.4913 -0.6326
vn 0.6825 0.5601 -0.4696
vn 0.6314 0.7693 -0.0975
vn 0.6831 0.3651 -0.6326
vn 0.7786 0.4162 -0.4696
vn 0.7693 0.6314 -0.0975
vn 0.9527 0.0938 -0.2890
vn 0.0942 0.0286 -0.9951
vn 0.2571 0.1374 -0.9565
vn 0.4173 0.2230 -0.8810
vn 0.5611 0.2999 -0.7715
vn 0.0980 0.0097 -0.9951
vn 0.2790 0.0846 -0.9565
vn 0.4528 0.1374 -0.8810
vn 0.6088 0.1847 -0.7715
vn 0.7412 0.2248 -0.6326
vn 0.8448 0.2563 -0.4696
vn 0.8777 0.4691 -0.0975
vn 0.9527 -0.0938 -0.2890
vn 0.7708 0.0759 -0.6326
vn 0.8786 0.0865 -0.4696
vn 0.9524 0.2889 -0.0975
vn 0.9161 -0.2779 -0.2890
vn 0.0980 -0.0097 -0.9951
vn 0.2902 0.0286 -0.9565
vn 0.4709 0.0464 -0.8810
vn 0.6332 0.0624 -0.7715
vn 0.2902 -0.0286 -0.9565
vn 0.4709 -0.0464 -0.8810
vn 0.6332 -0.0624 -0.7715
vn 0.7708 -0.0759 -0.6326
vn 0.8786 -0.0865 -0.4696
vn 0.9904 0.0975 -0.0975
vn 0.8443 -0.4513 -0.2890
vn 0.0942 -0.0286 -0.9951
vn 0.8448 -0.2563 -0.4696
vn 0.9904 -0.0976 -0.0975
vn 0.7400 -0.6073 -0.2890
vn 0.0869 -0.0464 -0.9951
vn 0.2790 -0.0846 -0.9565
vn 0.4528 -0.1374 -0.8810
vn 0.6088 -0.1847 -0.7715
vn 0.7412 -0.2248 -0.6326
vn 0.2571 -0.1374 -0.9565
vn 0.4173 -0.2231 -0.8810
vn 0.5611 -0.2999 -0.7715
vn 0.6831 -0.3651 -0.6326
vn 0.7786 -0.4162 -0.4696
vn 0.9524 -0.2889 -0.0975
vn 0.6073 -0.7400 -0.2890
vn 0.0761 -0.0625 -0.9951
vn 0.6825 -0.5601 -0.4696
vn 0.8777 -0.4691 -0.0975
vn 0.4513 -0.8443 -0.2890
vn 0.0625 -0.0761 -0.9951
vn 0.2254 -0.1850 -0.9565
vn 0.3658 -0.3002 -0.8810
vn 0.4918 -0.4036 -0.7715
vn 0.5987 -0.4913 -0.6326
vn 0.3002 -0.3658 -0.8810
vn 0.4036 -0.4918 -0.7715
vn 0.4913 -0.5987 -0.6326
vn 0.5601 -0.6825 -0.4696
vn 0.2563 -0.8448 -0.4696
vn 0.2779 -0.9161 -0.2890
vn 0.0464 -0.0869 -0.9951
vn 0.1850 -0.2254 -0.9565
vn 0.0865 -0.8786 -0.4696
vn 0.0938 -0.9527 -0.2890
vn 0.0286 -0.0942 -0.9951
vn 0.1374 -0.2571 -0.9565
vn 0.2230 -0.4173 -0.8810
vn 0.2999 -0.5611 -0.7715
vn 0.3651 -0.6831 -0.6326
vn 0.0759 -0.7708 -0.6326
vn 0.1847 -0.6088 -0.7715
vn -0.0624 -0.6332 -0.7715
vn -0.0759 -0.7708 -0.6326
vn -0.0865 -0.8786 -0.4696
vn -0.0938 -0.9527 -0.2890
vn 0.0097 -0.0980 -0.9951
vn 0.0846 -0.2790 -0.9565
vn 0.1374 -0.4528 -0.8810
vn -0.2571 0.1374 -0.9566
vn -0.9904 -0.0976 -0.0975
vn 0.0975 0.9904 -0.0975
vn -0.2999 0.5611 -0.7715
vn -0.2231 0.4173 -0.8810
vn -0.4173 0.2230 -0.8810
vn -0.2230 -0.4173 -0.8810
vn 0.2231 0.4173 -0.8810
vn 0.0976 -0.9904 -0.0975
vn -0.0975 -0.9904 -0.0976
vt 0.619422 0.245816
vt 0.588437 0.343390
vt 0.536200 0.322390
vt 0.548779 0.209192
vt 0.487216 0.293437
vt 0.442040 0.256229
vt 0.429864 0.378467
vt 0.371114 0.334793
vt 0.376499 0.465222
vt 0.305081 0.416973
vt 0.326082 0.554052
vt 0.243750 0.503376
vt 0.276448 0.645525
vt 0.185615 0.593127
vt 0.632009 0.137312
vt 0.614649 0.125753
vt 0.683543 0.042754
vt 0.651166 0.145373
vt 0.582658 0.230578
vt 0.599649 0.111082
vt 0.518658 0.181866
vt 0.493192 0.148823
vt 0.402387 0.211464
vt 0.316483 0.281073
vt 0.236118 0.358220
vt 0.882071 0.785073
vt 0.878099 0.899683
vt 0.763610 0.893665
vt 0.095695 0.533499
vt 0.690920 0.565490
vt 0.681097 0.667553
vt 0.587763 0.652314
vt 0.369444 0.690055
vt 0.327954 0.788831
vt 0.227018 0.742268
vt 0.878018 0.671896
vt 0.881616 0.784873
vt 0.772236 0.782107
vt 0.587620 0.093676
vt 0.731335 0.137733
vt 0.777684 0.237905
vt 0.737652 0.250489
vt 0.817007 0.342238
vt 0.757781 0.356210
vt 0.846979 0.450259
vt 0.770620 0.462219
vt 0.711363 0.145230
vt 0.697091 0.255648
vt 0.699067 0.360677
vt 0.626713 0.455778
vt 0.607820 0.553817
vt 0.527911 0.533080
vt 0.161910 0.442851
vt 0.129028 0.687944
vt 0.777384 0.674245
vt 0.666737 0.772118
vt 0.680995 0.040792
vt 0.772568 0.781946
vt 0.650529 0.880670
vt 0.033814 0.627706
vt 0.680516 0.667926
vt 0.564301 0.753689
vt 0.690548 0.148784
vt 0.656792 0.253778
vt 0.558184 0.438758
vt 0.492367 0.413063
vt 0.867216 0.560556
vt 0.777019 0.568050
vt 0.696959 0.463882
vt 0.690219 0.565823
vt 0.878073 0.899444
vt 0.763640 0.893859
vt 0.587089 0.652846
vt 0.464960 0.726424
vt 0.669583 0.148386
vt 0.564808 0.753039
vt 0.539638 0.859034
vt 0.431835 0.828267
vt 0.650463 0.881297
vt 0.496836 0.628928
vt 0.368901 0.690421
vt 0.649135 0.144119
vt 0.667106 0.771670
vt 0.642062 0.356169
vt 0.625691 0.456030
vt 0.606928 0.554267
vt 0.557026 0.439180
vt 0.526715 0.533690
vt 0.539280 0.860020
vt 0.409641 0.596250
vt 0.276100 0.646173
vt 0.629842 0.136137
vt 0.617749 0.245167
vt 0.587009 0.343299
vt 0.325285 0.554958
vt 0.185946 0.594474
vt 0.612318 0.124671
vt 0.580764 0.230087
vt 0.534502 0.322342
vt 0.491181 0.413567
vt 0.449455 0.504243
vt 0.430987 0.829403
vt 0.428407 0.379161
vt 0.375057 0.465918
vt 0.326431 0.789650
vt 0.243127 0.505062
vt 0.096819 0.536240
vt 0.597168 0.110028
vt 0.546663 0.208780
vt 0.485156 0.293391
vt 0.878909 0.671937
vt 0.584980 0.092642
vt 0.516268 0.181416
vt 0.439951 0.256579
vt 0.368991 0.335605
vt 0.303338 0.418442
vt 0.226156 0.741686
vt 0.234195 0.361189
vt 0.161566 0.445863
vt 0.465600 0.725749
vt 0.777947 0.674028
vt 0.732941 0.139518
vt 0.713052 0.146847
vt 0.490717 0.148540
vt 0.399678 0.211273
vt 0.313083 0.281816
vt 0.778271 0.239171
vt 0.738679 0.251561
vt 0.817571 0.342487
vt 0.758369 0.356544
vt 0.847086 0.449978
vt 0.771448 0.462104
vt 0.868478 0.559968
vt 0.777461 0.567774
vt 0.130112 0.687138
vt 0.037288 0.628497
vt 0.692336 0.150256
vt 0.671489 0.149740
vt 0.698307 0.256567
vt 0.700053 0.360901
vt 0.697851 0.463725
vt 0.658278 0.254515
vt 0.643185 0.356377
vt 0.497538 0.628243
vt 0.410321 0.595499
vt 0.450911 0.503849
s 0
usemtl Material.001
f 247/1/1 248/2/1 1/3/1
f 6/4/2 7/5/2 15/6/2
f 7/5/3 8/7/3 16/8/3
f 8/7/4 9/9/4 17/10/4
f 9/9/5 10/11/5 18/12/5
f 10/11/6 11/13/6 19/14/6
f 254/15/7 5/16/7 45/17/7
f 246/18/8 247/1/8 255/19/8
f 254/15/9 255/19/9 6/4/9
f 13/20/10 14/21/10 22/22/10
f 14/21/11 15/6/11 23/23/11
f 15/6/12 16/8/12 24/24/12
f 16/8/13 17/10/13 25/25/13
f 220/26/14 221/27/14 229/28/14
f 18/12/15 19/14/15 27/29/15
f 5/16/16 13/20/16 45/17/16
f 234/30/17 235/31/17 243/32/17
f 3/33/18 4/34/18 12/35/18
f 26/36/19 27/37/19 35/38/19
f 13/20/20 21/39/20 45/17/20
f 5/16/21 6/4/21 14/21/21
f 21/40/22 22/41/22 30/42/22
f 22/41/23 23/43/23 31/44/23
f 23/43/24 24/45/24 32/46/24
f 29/47/25 30/42/25 38/48/25
f 30/42/26 31/44/26 39/49/26
f 241/50/27 242/51/27 250/52/27
f 17/10/28 18/12/28 26/53/28
f 11/13/29 12/35/29 20/54/29
f 34/55/30 35/38/30 43/56/30
f 21/40/31 29/47/31 45/57/31
f 228/58/32 229/28/32 237/59/32
f 19/14/33 20/54/33 28/60/33
f 42/61/34 43/56/34 52/62/34
f 29/47/35 37/63/35 45/57/35
f 118/18/36 119/1/36 127/19/36
f 37/63/37 38/48/37 47/64/37
f 248/2/38 249/65/38 256/66/38
f 24/45/39 25/67/39 33/68/39
f 25/67/40 26/36/40 34/55/40
f 255/19/41 1/3/41 7/5/41
f 31/44/42 32/46/42 40/69/42
f 32/46/43 33/68/43 41/70/43
f 33/68/44 34/55/44 42/61/44
f 27/37/45 28/71/45 36/72/45
f 51/73/46 52/62/46 60/74/46
f 37/63/47 46/75/47 45/57/47
f 244/76/48 245/77/48 253/78/48
f 35/38/49 36/72/49 44/79/49
f 59/80/50 60/74/50 68/81/50
f 46/75/51 54/82/51 45/57/51
f 236/83/52 237/59/52 245/77/52
f 38/48/53 39/49/53 48/84/53
f 39/49/54 40/69/54 49/85/54
f 40/69/55 41/70/55 50/86/55
f 41/70/56 42/61/56 51/73/56
f 48/84/57 49/85/57 57/87/57
f 49/85/58 50/86/58 58/88/58
f 50/86/59 51/73/59 59/80/59
f 43/56/60 44/79/60 53/89/60
f 67/90/61 68/81/61 76/91/61
f 54/82/62 62/92/62 45/57/62
f 46/75/63 47/64/63 55/93/63
f 47/64/64 48/84/64 56/94/64
f 75/95/65 76/91/65 84/96/65
f 62/92/66 70/97/66 45/57/66
f 54/82/67 55/93/67 63/98/67
f 55/93/68 56/94/68 64/99/68
f 56/94/69 57/87/69 65/100/69
f 57/87/70 58/88/70 66/101/70
f 58/88/71 59/80/71 67/90/71
f 52/62/72 53/89/72 61/102/72
f 64/99/73 65/100/73 73/103/73
f 65/100/74 66/101/74 74/104/74
f 66/101/75 67/90/75 75/95/75
f 60/74/76 61/102/76 69/105/76
f 83/106/77 84/96/77 92/107/77
f 70/97/78 78/108/78 45/57/78
f 62/92/79 63/98/79 71/109/79
f 63/98/80 64/99/80 72/110/80
f 91/111/81 92/26/81 100/58/81
f 78/108/82 86/112/82 45/57/82
f 70/97/83 71/109/83 79/113/83
f 71/109/84 72/110/84 80/114/84
f 72/110/85 73/103/85 81/115/85
f 73/103/86 74/104/86 82/116/86
f 74/104/87 75/95/87 83/106/87
f 68/81/88 69/105/88 77/117/88
f 81/115/89 82/116/89 90/118/89
f 82/116/90 83/106/90 91/119/90
f 196/33/91 188/120/91 197/34/91
f 99/121/92 100/58/92 108/83/92
f 86/122/93 94/123/93 45/17/93
f 78/108/94 79/113/94 87/124/94
f 79/113/95 80/114/95 88/125/95
f 80/114/96 81/115/96 89/126/96
f 86/122/97 87/127/97 95/128/97
f 87/127/98 88/129/98 96/130/98
f 88/129/99 89/131/99 97/132/99
f 89/131/100 90/133/100 98/134/100
f 76/91/101 77/117/101 85/135/101
f 84/96/102 85/135/102 93/136/102
f 107/31/103 108/83/103 116/76/103
f 94/123/104 102/137/104 45/17/104
f 98/134/105 99/121/105 107/31/105
f 92/26/106 93/27/106 101/28/106
f 115/32/107 116/76/107 124/120/107
f 102/137/108 110/138/108 45/17/108
f 94/123/109 95/128/109 103/139/109
f 95/128/110 96/130/110 104/140/110
f 96/130/111 97/132/111 105/141/111
f 90/133/112 91/111/112 99/121/112
f 102/137/113 103/139/113 111/142/113
f 103/139/114 104/140/114 112/143/114
f 97/132/115 98/134/115 106/30/115
f 105/141/116 106/30/116 114/51/116
f 106/30/117 107/31/117 115/32/117
f 100/58/118 101/28/118 109/59/118
f 123/144/119 124/120/119 132/33/119
f 110/138/120 118/18/120 45/17/120
f 114/51/121 115/32/121 123/144/121
f 108/83/122 109/59/122 117/77/122
f 131/145/123 132/33/123 140/13/123
f 118/18/124 126/15/124 45/17/124
f 110/138/125 111/142/125 119/1/125
f 112/143/126 113/50/126 121/65/126
f 113/50/127 114/51/127 122/52/127
f 119/1/128 120/2/128 128/3/128
f 120/2/129 121/65/129 129/66/129
f 121/65/130 122/52/130 130/146/130
f 122/52/131 123/144/131 131/145/131
f 116/76/132 117/77/132 125/78/132
f 139/11/133 140/13/133 148/14/133
f 126/15/134 134/16/134 45/17/134
f 111/142/135 112/143/135 120/2/135
f 124/120/136 125/78/136 133/34/136
f 147/12/137 148/14/137 156/29/137
f 134/16/138 142/20/138 45/17/138
f 126/15/139 127/19/139 135/4/139
f 127/19/140 128/3/140 136/5/140
f 128/3/141 129/66/141 137/7/141
f 129/66/142 130/146/142 138/9/142
f 130/146/143 131/145/143 139/11/143
f 135/4/144 136/5/144 144/6/144
f 136/5/145 137/7/145 145/8/145
f 137/7/146 138/9/146 146/10/146
f 138/9/147 139/11/147 147/12/147
f 132/33/148 133/34/148 141/35/148
f 155/111/149 156/26/149 164/58/149
f 142/20/150 150/39/150 45/17/150
f 134/16/151 135/4/151 143/21/151
f 140/13/152 141/35/152 149/54/152
f 163/121/153 164/58/153 172/83/153
f 150/122/154 158/123/154 45/17/154
f 142/20/155 143/21/155 151/22/155
f 143/21/156 144/6/156 152/23/156
f 144/6/157 145/8/157 153/24/157
f 145/8/158 146/10/158 154/25/158
f 146/10/159 147/12/159 155/53/159
f 152/129/160 153/131/160 161/132/160
f 153/131/161 154/133/161 162/134/161
f 154/133/162 155/111/162 163/121/162
f 148/14/163 149/54/163 157/60/163
f 171/31/164 172/83/164 180/76/164
f 158/123/165 166/137/165 45/17/165
f 150/122/166 151/127/166 159/128/166
f 151/127/167 152/129/167 160/130/167
f 179/32/168 180/76/168 188/120/168
f 166/137/169 174/138/169 45/17/169
f 158/123/170 159/128/170 167/139/170
f 159/128/171 160/130/171 168/140/171
f 160/130/172 161/132/172 169/141/172
f 161/132/173 162/134/173 170/30/173
f 162/134/174 163/121/174 171/31/174
f 156/26/175 157/27/175 165/28/175
f 169/141/176 170/30/176 178/51/176
f 170/30/177 171/31/177 179/32/177
f 164/58/178 165/28/178 173/59/178
f 187/144/179 188/120/179 196/33/179
f 174/138/180 182/18/180 45/17/180
f 166/137/181 167/139/181 175/142/181
f 167/139/182 168/140/182 176/143/182
f 168/140/183 169/141/183 177/50/183
f 182/18/184 190/15/184 45/17/184
f 174/138/185 175/142/185 183/1/185
f 175/142/186 176/143/186 184/2/186
f 176/143/187 177/50/187 185/65/187
f 177/50/188 178/51/188 186/52/188
f 178/51/189 179/32/189 187/144/189
f 172/83/190 173/59/190 181/77/190
f 195/145/191 196/33/191 204/13/191
f 185/65/192 186/52/192 194/146/192
f 186/52/193 187/144/193 195/145/193
f 180/76/194 181/77/194 189/78/194
f 203/11/195 204/13/195 212/14/195
f 190/15/196 198/16/196 45/17/196
f 182/18/197 183/1/197 191/19/197
f 183/1/198 184/2/198 192/3/198
f 184/2/199 185/65/199 193/66/199
f 190/15/200 191/19/200 199/4/200
f 191/19/201 192/3/201 200/5/201
f 192/3/202 193/66/202 201/7/202
f 193/66/203 194/146/203 202/9/203
f 194/146/204 195/145/204 203/11/204
f 188/120/205 189/78/205 197/34/205
f 211/12/206 212/14/206 220/29/206
f 198/16/207 206/20/207 45/17/207
f 202/9/208 203/11/208 211/12/208
f 196/33/209 197/34/209 205/35/209
f 219/111/210 220/26/210 228/58/210
f 206/20/211 214/39/211 45/17/211
f 198/16/212 199/4/212 207/21/212
f 199/4/213 200/5/213 208/6/213
f 200/5/214 201/7/214 209/8/214
f 201/7/215 202/9/215 210/10/215
f 206/20/216 207/21/216 215/22/216
f 207/21/217 208/6/217 216/23/217
f 208/6/218 209/8/218 217/24/218
f 209/8/219 210/10/219 218/25/219
f 210/10/220 211/12/220 219/53/220
f 204/13/221 205/35/221 213/54/221
f 227/121/222 228/58/222 236/83/222
f 214/122/223 222/123/223 45/17/223
f 218/133/224 219/111/224 227/121/224
f 212/14/225 213/54/225 221/60/225
f 235/31/226 236/83/226 244/76/226
f 222/123/227 230/137/227 45/17/227
f 214/122/228 215/127/228 223/128/228
f 215/127/229 216/129/229 224/130/229
f 216/129/230 217/131/230 225/132/230
f 217/131/231 218/133/231 226/134/231
f 223/128/232 224/130/232 232/140/232
f 224/130/233 225/132/233 233/141/233
f 225/132/234 226/134/234 234/30/234
f 226/134/235 227/121/235 235/31/235
f 242/51/236 243/32/236 251/144/236
f 243/32/237 244/76/237 252/120/237
f 230/137/238 238/138/238 45/17/238
f 222/123/239 223/128/239 231/139/239
f 250/52/240 251/144/240 257/145/240
f 251/144/241 252/120/241 3/33/241
f 238/138/242 246/18/242 45/17/242
f 230/137/243 231/139/243 239/142/243
f 231/139/244 232/140/244 240/143/244
f 232/140/245 233/141/245 241/50/245
f 233/141/246 234/30/246 242/51/246
f 249/65/247 250/52/247 2/146/247
f 240/143/248 241/50/248 249/65/248
f 1/3/249 256/66/249 8/7/249
f 256/66/250 2/146/250 9/9/250
f 2/146/251 257/145/251 10/11/251
f 257/145/252 3/33/252 11/13/252
f 246/18/253 254/15/253 45/17/253
f 238/138/254 239/142/254 247/1/254
f 239/142/255 240/143/255 248/2/255
f 132/33/136 124/120/136 133/34/136
f 86/112/256 78/108/256 87/124/256
f 100/58/106 92/26/106 101/28/106
f 68/81/257 60/74/257 69/105/257
f 35/38/45 27/37/45 36/72/45
f 95/128/98 87/127/98 96/130/98
f 104/140/111 96/130/111 105/141/111
f 54/82/63 46/75/63 55/93/63
f 21/39/10 13/20/10 22/22/10
f 246/18/254 238/138/254 247/1/254
f 113/50/116 105/141/116 114/51/116
f 122/52/121 114/51/121 123/144/121
f 63/98/68 55/93/68 64/99/68
f 30/42/23 22/41/23 31/44/23
f 255/19/1 247/1/1 1/3/1
f 131/145/119 123/144/119 132/33/119
f 140/13/258 132/33/258 141/35/258
f 72/110/73 64/99/73 73/103/73
f 39/49/42 31/44/42 40/69/42
f 7/5/249 1/3/249 8/7/249
f 94/123/97 86/122/97 95/128/97
f 103/139/110 95/128/110 104/140/110
f 81/115/86 73/103/86 82/116/86
f 49/85/55 40/69/55 50/86/55
f 16/8/4 8/7/4 17/10/4
f 112/143/259 104/140/259 113/50/259
f 121/65/127 113/50/127 122/52/127
f 90/118/90 82/116/90 91/119/90
f 58/88/59 50/86/59 59/80/59
f 25/25/28 17/10/28 26/53/28
f 130/146/131 122/52/131 131/145/131
f 139/11/123 131/145/123 140/13/123
f 99/121/81 91/111/81 100/58/81
f 67/90/50 59/80/50 68/81/50
f 34/55/19 26/36/19 35/38/19
f 148/14/152 140/13/152 149/54/152
f 102/137/109 94/123/109 103/139/109
f 108/83/118 100/58/118 109/59/118
f 76/91/88 68/81/88 77/117/88
f 43/56/49 35/38/49 44/79/49
f 111/142/260 103/139/260 112/143/260
f 120/2/126 112/143/126 121/65/126
f 62/92/67 54/82/67 63/98/67
f 29/47/22 21/40/22 30/42/22
f 254/15/8 246/18/8 255/19/8
f 129/66/130 121/65/130 130/146/130
f 138/9/143 130/146/143 139/11/143
f 71/109/80 63/98/80 72/110/80
f 38/48/26 30/42/26 39/49/26
f 6/4/41 255/19/41 7/5/41
f 147/12/133 139/11/133 148/14/133
f 156/29/163 148/14/163 157/60/163
f 80/114/85 72/110/85 81/115/85
f 48/84/54 39/49/54 49/85/54
f 15/6/3 7/5/3 16/8/3
f 110/138/113 102/137/113 111/142/113
f 119/1/135 111/142/135 120/2/135
f 89/126/89 81/115/89 90/118/89
f 57/87/58 49/85/58 58/88/58
f 24/24/13 16/8/13 25/25/13
f 128/3/129 120/2/129 129/66/129
f 137/7/142 129/66/142 138/9/142
f 98/134/112 90/133/112 99/121/112
f 66/101/71 58/88/71 67/90/71
f 33/68/40 25/67/40 34/55/40
f 146/10/147 138/9/147 147/12/147
f 155/53/137 147/12/137 156/29/137
f 107/31/92 99/121/92 108/83/92
f 75/95/61 67/90/61 76/91/61
f 42/61/30 34/55/30 43/56/30
f 164/58/175 156/26/175 165/28/175
f 118/18/125 110/138/125 119/1/125
f 116/76/122 108/83/122 117/77/122
f 84/96/101 76/91/101 85/135/101
f 52/62/60 43/56/60 53/89/60
f 127/19/128 119/1/128 128/3/128
f 136/5/141 128/3/141 137/7/141
f 70/97/79 62/92/79 71/109/79
f 37/63/25 29/47/25 38/48/25
f 5/16/9 254/15/9 6/4/9
f 145/8/146 137/7/146 146/10/146
f 154/25/159 146/10/159 155/53/159
f 79/113/84 71/109/84 80/114/84
f 47/64/53 38/48/53 48/84/53
f 14/21/2 6/4/2 15/6/2
f 163/121/149 155/111/149 164/58/149
f 172/83/178 164/58/178 173/59/178
f 88/125/96 80/114/96 89/126/96
f 56/94/57 48/84/57 57/87/57
f 23/23/12 15/6/12 24/24/12
f 126/15/36 118/18/36 127/19/36
f 135/4/140 127/19/140 136/5/140
f 97/132/100 89/131/100 98/134/100
f 65/100/70 57/87/70 66/101/70
f 32/46/39 24/45/39 33/68/39
f 144/6/145 136/5/145 145/8/145
f 153/24/158 145/8/158 154/25/158
f 106/30/105 98/134/105 107/31/105
f 74/104/75 66/101/75 75/95/75
f 41/70/44 33/68/44 42/61/44
f 162/134/162 154/133/162 163/121/162
f 171/31/153 163/121/153 172/83/153
f 115/32/103 107/31/103 116/76/103
f 83/106/65 75/95/65 84/96/65
f 51/73/34 42/61/34 52/62/34
f 180/76/190 172/83/190 181/77/190
f 134/16/139 126/15/139 135/4/139
f 124/120/132 116/76/132 125/78/132
f 92/107/102 84/96/102 93/136/102
f 60/74/72 52/62/72 61/102/72
f 143/21/144 135/4/144 144/6/144
f 152/23/157 144/6/157 153/24/157
f 78/108/83 70/97/83 79/113/83
f 46/75/37 37/63/37 47/64/37
f 13/20/21 5/16/21 14/21/21
f 161/132/161 153/131/161 162/134/161
f 170/30/174 162/134/174 171/31/174
f 87/124/261 79/113/261 88/125/261
f 55/93/64 47/64/64 56/94/64
f 22/22/262 14/21/262 23/23/262
f 179/32/164 171/31/164 180/76/164
f 188/120/194 180/76/194 189/78/194
f 96/130/99 88/129/99 97/132/99
f 64/99/69 56/94/69 65/100/69
f 31/44/24 23/43/24 32/46/24
f 142/20/151 134/16/151 143/21/151
f 151/22/263 143/21/263 152/23/263
f 105/141/115 97/132/115 106/30/115
f 73/103/74 65/100/74 74/104/74
f 40/69/43 32/46/43 41/70/43
f 160/130/160 152/129/160 161/132/160
f 169/141/173 161/132/173 170/30/173
f 114/51/117 106/30/117 115/32/117
f 82/116/87 74/104/87 83/106/87
f 50/86/56 41/70/56 51/73/56
f 178/51/177 170/30/177 179/32/177
f 187/144/168 179/32/168 188/120/168
f 123/144/107 115/32/107 124/120/107
f 91/119/77 83/106/77 92/107/77
f 59/80/46 51/73/46 60/74/46
f 252/120/264 253/78/264 4/34/264
f 104/140/259 105/141/259 113/50/259
f 26/53/15 18/12/15 27/29/15
f 17/10/5 9/9/5 18/12/5
f 8/7/250 256/66/250 9/9/250
f 1/3/38 248/2/38 256/66/38
f 247/1/255 239/142/255 248/2/255
f 238/138/243 230/137/243 239/142/243
f 27/29/33 19/14/33 28/60/33
f 18/12/6 10/11/6 19/14/6
f 9/9/251 2/146/251 10/11/251
f 256/66/247 249/65/247 2/146/247
f 248/2/248 240/143/248 249/65/248
f 239/142/244 231/139/244 240/143/244
f 230/137/239 222/123/239 231/139/239
f 19/14/29 11/13/29 20/54/29
f 10/11/252 257/145/252 11/13/252
f 2/146/240 250/52/240 257/145/240
f 249/65/27 241/50/27 250/52/27
f 240/143/245 232/140/245 241/50/245
f 231/139/232 223/128/232 232/140/232
f 222/123/228 214/122/228 223/128/228
f 11/13/265 3/33/265 12/35/265
f 257/145/241 251/144/241 3/33/241
f 250/52/236 242/51/236 251/144/236
f 241/50/246 233/141/246 242/51/246
f 232/140/233 224/130/233 233/141/233
f 223/128/229 215/127/229 224/130/229
f 214/39/216 206/20/216 215/22/216
f 3/33/264 252/120/264 4/34/264
f 251/144/237 243/32/237 252/120/237
f 242/51/17 234/30/17 243/32/17
f 233/141/234 225/132/234 234/30/234
f 224/130/230 216/129/230 225/132/230
f 215/22/217 207/21/217 216/23/217
f 206/20/212 198/16/212 207/21/212
f 252/120/48 244/76/48 253/78/48
f 243/32/226 235/31/226 244/76/226
f 234/30/235 226/134/235 235/31/235
f 225/132/231 217/131/231 226/134/231
f 216/23/218 208/6/218 217/24/218
f 207/21/213 199/4/213 208/6/213
f 198/16/200 190/15/200 199/4/200
f 244/76/52 236/83/52 245/77/52
f 235/31/222 227/121/222 236/83/222
f 226/134/224 218/133/224 227/121/224
f 217/24/219 209/8/219 218/25/219
f 208/6/214 200/5/214 209/8/214
f 199/4/201 191/19/201 200/5/201
f 190/15/197 182/18/197 191/19/197
f 236/83/32 228/58/32 237/59/32
f 227/121/210 219/111/210 228/58/210
f 218/25/220 210/10/220 219/53/220
f 209/8/215 201/7/215 210/10/215
f 200/5/202 192/3/202 201/7/202
f 191/19/198 183/1/198 192/3/198
f 182/18/185 174/138/185 183/1/185
f 228/58/14 220/26/14 229/28/14
f 219/53/206 211/12/206 220/29/206
f 210/10/208 202/9/208 211/12/208
f 201/7/203 193/66/203 202/9/203
f 192/3/199 184/2/199 193/66/199
f 183/1/186 175/142/186 184/2/186
f 174/138/181 166/137/181 175/142/181
f 220/29/225 212/14/225 221/60/225
f 211/12/195 203/11/195 212/14/195
f 202/9/204 194/146/204 203/11/204
f 193/66/192 185/65/192 194/146/192
f 184/2/187 176/143/187 185/65/187
f 175/142/182 167/139/182 176/143/182
f 166/137/170 158/123/170 167/139/170
f 212/14/221 204/13/221 213/54/221
f 203/11/191 195/145/191 204/13/191
f 194/146/193 186/52/193 195/145/193
f 185/65/188 177/50/188 186/52/188
f 176/143/183 168/140/183 177/50/183
f 167/139/171 159/128/171 168/140/171
f 158/123/166 150/122/166 159/128/166
f 204/13/209 196/33/209 205/35/209
f 195/145/179 187/144/179 196/33/179
f 186/52/189 178/51/189 187/144/189
f 177/50/176 169/141/176 178/51/176
f 168/140/172 160/130/172 169/141/172
f 159/128/167 151/127/167 160/130/167
f 150/39/155 142/20/155 151/22/155
