# Blender 4.2.3 LTS
# www.blender.org
mtllib hallway.mtl
o Cylinder
v 2.500000 1.000000 -0.000000
v 2.500000 0.980785 -0.195090
v 2.500000 0.923880 -0.382684
v 2.500000 0.831470 -0.555570
v 2.500000 0.707107 -0.707107
v 2.500000 0.555570 -0.831470
v 2.500000 0.382683 -0.923880
v 2.500000 0.195090 -0.980785
v 2.500000 0.000000 -1.000000
v 2.500000 -0.195090 -0.980785
v 2.500000 -0.382683 -0.923880
v 2.500000 -0.555570 -0.831470
v 2.500000 -0.707107 -0.707107
v 2.500000 -0.831470 -0.555570
v 2.500000 -0.923880 -0.382684
v 2.500000 -0.980785 -0.195090
v 2.500000 -1.000000 -0.000000
v 2.500000 -0.980785 0.195090
v 2.500000 -0.923880 0.382683
v 2.500000 -0.831470 0.555570
v 2.500000 -0.707107 0.707107
v 2.500000 -0.555570 0.831469
v 2.500000 -0.382683 0.923879
v 2.500000 -0.195090 0.980785
v 2.500000 0.000000 1.000000
v 2.500000 0.195090 0.980785
v 2.500000 0.382683 0.923879
v 2.500000 0.555570 0.831469
v 2.500000 0.707107 0.707107
v 2.500000 0.831470 0.555570
v 2.500000 0.923880 0.382683
v 2.500000 0.980785 0.195090
v 0.000000 1.000000 -0.000000
v 0.208333 1.000000 -0.000000
v 0.416667 1.000000 -0.000000
v 0.625000 1.000000 -0.000000
v 0.833333 1.000000 -0.000000
v 1.041667 1.000000 -0.000000
v 1.250000 1.000000 -0.000000
v 1.458333 1.000000 -0.000000
v 1.666667 1.000000 -0.000000
v 1.875000 1.000000 -0.000000
v 2.083333 1.000000 -0.000000
v 2.291667 1.000000 -0.000000
v 2.291667 0.980785 -0.195090
v 2.083333 0.980785 -0.195090
v 1.875000 0.980785 -0.195090
v 1.666667 0.980785 -0.195090
v 1.458333 0.980785 -0.195090
v 1.250000 0.980785 -0.195090
v 1.041667 0.980785 -0.195090
v 0.833333 0.980785 -0.195090
v 0.625000 0.980785 -0.195090
v 0.416667 0.980785 -0.195090
v 0.208333 0.980785 -0.195090
v -0.000000 0.980785 -0.195090
v 2.291667 0.923880 -0.382684
v 2.083333 0.923880 -0.382684
v 1.875000 0.923880 -0.382684
v 1.666667 0.923880 -0.382684
v 1.458333 0.923880 -0.382684
v 1.250000 0.923880 -0.382684
v 1.041667 0.923880 -0.382684
v 0.833333 0.923880 -0.382683
v 0.625000 0.923880 -0.382683
v 0.416667 0.923880 -0.382683
v 0.208333 0.923880 -0.382683
v -0.000000 0.923880 -0.382683
v 2.291667 0.831470 -0.555570
v 2.083333 0.831470 -0.555570
v 1.875000 0.831470 -0.555570
v 1.666667 0.831470 -0.555570
v 1.458333 0.831470 -0.555570
v 1.250000 0.831470 -0.555570
v 1.041667 0.831470 -0.555570
v 0.833333 0.831470 -0.555570
v 0.625000 0.831470 -0.555570
v 0.416667 0.831470 -0.555570
v 0.208333 0.831470 -0.555570
v -0.000000 0.831470 -0.555570
v 2.291667 0.707107 -0.707107
v 2.083333 0.707107 -0.707107
v 1.875000 0.707107 -0.707107
v 1.666667 0.707107 -0.707107
v 1.458333 0.707107 -0.707107
v 1.250000 0.707107 -0.707107
v 1.041667 0.707107 -0.707107
v 0.833333 0.707107 -0.707107
v 0.625000 0.707107 -0.707107
v 0.416667 0.707107 -0.707107
v 0.208333 0.707107 -0.707107
v -0.000000 0.707107 -0.707107
v 2.291667 0.555570 -0.831470
v 2.083333 0.555570 -0.831470
v 1.875000 0.555570 -0.831470
v 1.666667 0.555570 -0.831470
v 1.458333 0.555570 -0.831470
v 1.250000 0.555570 -0.831470
v 1.041667 0.555570 -0.831470
v 0.833333 0.555570 -0.831470
v 0.625000 0.555570 -0.831470
v 0.416667 0.555570 -0.831470
v 0.208333 0.555570 -0.831470
v -0.000000 0.555570 -0.831470
v 2.291667 0.382683 -0.923880
v 2.083333 0.382683 -0.923880
v 1.875000 0.382683 -0.923880
v 1.666667 0.382683 -0.923880
v 1.458333 0.382683 -0.923880
v 1.250000 0.382683 -0.923880
v 1.041667 0.382683 -0.923880
v 0.833333 0.382683 -0.923880
v 0.625000 0.382683 -0.923880
v 0.416667 0.382683 -0.923880
v 0.208333 0.382683 -0.923880
v -0.000000 0.382683 -0.923880
v 2.291667 0.195090 -0.980785
v 2.083333 0.195090 -0.980785
v 1.875000 0.195090 -0.980785
v 1.666667 0.195090 -0.980785
v 1.458333 0.195090 -0.980785
v 1.250000 0.195090 -0.980785
v 1.041667 0.195090 -0.980785
v 0.833333 0.195090 -0.980785
v 0.625000 0.195090 -0.980785
v 0.416667 0.195090 -0.980785
v 0.208333 0.195090 -0.980785
v -0.000000 0.195090 -0.980785
v 2.291667 0.000000 -1.000000
v 2.083333 0.000000 -1.000000
v 1.875000 0.000000 -1.000000
v 1.666667 0.000000 -1.000000
v 1.458333 0.000000 -1.000000
v 1.250000 0.000000 -1.000000
v 1.041667 0.000000 -1.000000
v 0.833333 0.000000 -1.000000
v 0.625000 0.000000 -1.000000
v 0.416667 0.000000 -1.000000
v 0.208333 0.000000 -1.000000
v -0.000000 0.000000 -1.000000
v 2.291667 -0.195090 -0.980785
v 2.083333 -0.195090 -0.980785
v 1.875000 -0.195090 -0.980785
v 1.666667 -0.195090 -0.980785
v 1.458333 -0.195090 -0.980785
v 1.250000 -0.195090 -0.980785
v 1.041667 -0.195090 -0.980785
v 0.833333 -0.195090 -0.980785
v 0.625000 -0.195090 -0.980785
v 0.416667 -0.195090 -0.980785
v 0.208333 -0.195090 -0.980785
v -0.000000 -0.195090 -0.980785
v 2.291667 -0.382683 -0.923880
v 2.083333 -0.382683 -0.923880
v 1.875000 -0.382683 -0.923880
v 1.666667 -0.382683 -0.923880
v 1.458333 -0.382683 -0.923880
v 1.250000 -0.382683 -0.923880
v 1.041667 -0.382683 -0.923880
v 0.833333 -0.382683 -0.923880
v 0.625000 -0.382683 -0.923880
v 0.416667 -0.382683 -0.923880
v 0.208333 -0.382683 -0.923880
v -0.000000 -0.382683 -0.923880
v 2.291667 -0.555570 -0.831470
v 2.083333 -0.555570 -0.831470
v 1.875000 -0.555570 -0.831470
v 1.666667 -0.555570 -0.831470
v 1.458333 -0.555570 -0.831470
v 1.250000 -0.555570 -0.831470
v 1.041667 -0.555570 -0.831470
v 0.833333 -0.555570 -0.831470
v 0.625000 -0.555570 -0.831470
v 0.416667 -0.555570 -0.831470
v 0.208333 -0.555570 -0.831470
v -0.000000 -0.555570 -0.831470
v 2.291667 -0.707107 -0.707107
v 2.083333 -0.707107 -0.707107
v 1.875000 -0.707107 -0.707107
v 1.666667 -0.707107 -0.707107
v 1.458333 -0.707107 -0.707107
v 1.250000 -0.707107 -0.707107
v 1.041667 -0.707107 -0.707107
v 0.833333 -0.707107 -0.707107
v 0.625000 -0.707107 -0.707107
v 0.416667 -0.707107 -0.707107
v 0.208333 -0.707107 -0.707107
v -0.000000 -0.707107 -0.707107
v 2.291667 -0.831470 -0.555570
v 2.083333 -0.831470 -0.555570
v 1.875000 -0.831470 -0.555570
v 1.666667 -0.831470 -0.555570
v 1.458333 -0.831470 -0.555570
v 1.250000 -0.831470 -0.555570
v 1.041667 -0.831470 -0.555570
v 0.833333 -0.831470 -0.555570
v 0.625000 -0.831470 -0.555570
v 0.416667 -0.831470 -0.555570
v 0.208333 -0.831470 -0.555570
v -0.000000 -0.831470 -0.555570
v 2.291667 -0.923880 -0.382684
v 2.083333 -0.923880 -0.382684
v 1.875000 -0.923880 -0.382684
v 1.666667 -0.923880 -0.382684
v 1.458333 -0.923880 -0.382684
v 1.250000 -0.923880 -0.382684
v 1.041667 -0.923880 -0.382684
v 0.833333 -0.923880 -0.382683
v 0.625000 -0.923880 -0.382683
v 0.416667 -0.923880 -0.382683
v 0.208333 -0.923880 -0.382683
v -0.000000 -0.923880 -0.382683
v 2.291667 -0.980785 -0.195090
v 2.083333 -0.980785 -0.195090
v 1.875000 -0.980785 -0.195090
v 1.666667 -0.980785 -0.195090
v 1.458333 -0.980785 -0.195090
v 1.250000 -0.980785 -0.195090
v 1.041667 -0.980785 -0.195090
v 0.833333 -0.980785 -0.195090
v 0.625000 -0.980785 -0.195090
v 0.416667 -0.980785 -0.195090
v 0.208333 -0.980785 -0.195090
v -0.000000 -0.980785 -0.195090
v 2.291667 -1.000000 -0.000000
v 2.083333 -1.000000 -0.000000
v 1.875000 -1.000000 -0.000000
v 1.666667 -1.000000 -0.000000
v 1.458333 -1.000000 -0.000000
v 1.250000 -1.000000 -0.000000
v 1.041667 -1.000000 -0.000000
v 0.833333 -1.000000 -0.000000
v 0.625000 -1.000000 -0.000000
v 0.416667 -1.000000 -0.000000
v 0.208333 -1.000000 -0.000000
v -0.000000 -1.000000 0.000000
v 2.291667 -0.980785 0.195090
v 2.083333 -0.980785 0.195090
v 1.875000 -0.980785 0.195090
v 1.666667 -0.980785 0.195090
v 1.458333 -0.980785 0.195090
v 1.250000 -0.980785 0.195090
v 1.041667 -0.980785 0.195090
v 0.833333 -0.980785 0.195090
v 0.625000 -0.980785 0.195090
v 0.416667 -0.980785 0.195090
v 0.208333 -0.980785 0.195090
v -0.000000 -0.980785 0.195090
v 2.291667 -0.923880 0.382683
v 2.083333 -0.923880 0.382683
v 1.875000 -0.923880 0.382683
v 1.666667 -0.923880 0.382683
v 1.458333 -0.923880 0.382683
v 1.250000 -0.923880 0.382683
v 1.041667 -0.923880 0.382683
v 0.833333 -0.923880 0.382683
v 0.625000 -0.923880 0.382683
v 0.416667 -0.923880 0.382683
v 0.208333 -0.923880 0.382683
v 0.000000 -0.923880 0.382683
v 2.291667 -0.831470 0.555570
v 2.083333 -0.831470 0.555570
v 1.875000 -0.831470 0.555570
v 1.666667 -0.831470 0.555570
v 1.458333 -0.831470 0.555570
v 1.250000 -0.831470 0.555570
v 1.041667 -0.831470 0.555570
v 0.833333 -0.831470 0.555570
v 0.625000 -0.831470 0.555570
v 0.416667 -0.831470 0.555570
v 0.208333 -0.831470 0.555570
v 0.000000 -0.831470 0.555570
v 2.291667 -0.707107 0.707107
v 2.083333 -0.707107 0.707107
v 1.875000 -0.707107 0.707107
v 1.666667 -0.707107 0.707107
v 1.458333 -0.707107 0.707107
v 1.250000 -0.707107 0.707107
v 1.041667 -0.707107 0.707107
v 0.833333 -0.707107 0.707107
v 0.625000 -0.707107 0.707107
v 0.416667 -0.707107 0.707107
v 0.208333 -0.707107 0.707107
v 0.000000 -0.707107 0.707107
v 2.291667 -0.555570 0.831469
v 2.083333 -0.555570 0.831469
v 1.875000 -0.555570 0.831470
v 1.666667 -0.555570 0.831470
v 1.458333 -0.555570 0.831470
v 1.250000 -0.555570 0.831470
v 1.041667 -0.555570 0.831470
v 0.833333 -0.555570 0.831470
v 0.625000 -0.555570 0.831470
v 0.416667 -0.555570 0.831470
v 0.208333 -0.555570 0.831470
v 0.000000 -0.555570 0.831470
v 2.291667 -0.382683 0.923879
v 2.083333 -0.382683 0.923879
v 1.875000 -0.382683 0.923879
v 1.666667 -0.382683 0.923879
v 1.458333 -0.382683 0.923879
v 1.250000 -0.382683 0.923879
v 1.041667 -0.382683 0.923879
v 0.833333 -0.382683 0.923879
v 0.625000 -0.382683 0.923880
v 0.416667 -0.382683 0.923880
v 0.208333 -0.382683 0.923880
v 0.000000 -0.382683 0.923880
v 2.291667 -0.195090 0.980785
v 2.083333 -0.195090 0.980785
v 1.875000 -0.195090 0.980785
v 1.666667 -0.195090 0.980785
v 1.458333 -0.195090 0.980785
v 1.250000 -0.195090 0.980785
v 1.041667 -0.195090 0.980785
v 0.833333 -0.195090 0.980785
v 0.625000 -0.195090 0.980785
v 0.416667 -0.195090 0.980785
v 0.208333 -0.195090 0.980785
v 0.000000 -0.195090 0.980785
v 2.291667 0.000000 1.000000
v 2.083333 0.000000 1.000000
v 1.875000 0.000000 1.000000
v 1.666667 0.000000 1.000000
v 1.458333 0.000000 1.000000
v 1.250000 0.000000 1.000000
v 1.041667 0.000000 1.000000
v 0.833333 0.000000 1.000000
v 0.625000 0.000000 1.000000
v 0.416667 0.000000 1.000000
v 0.208333 0.000000 1.000000
v 0.000000 0.000000 1.000000
v 2.291667 0.195090 0.980785
v 2.083333 0.195090 0.980785
v 1.875000 0.195090 0.980785
v 1.666667 0.195090 0.980785
v 1.458333 0.195090 0.980785
v 1.250000 0.195090 0.980785
v 1.041667 0.195090 0.980785
v 0.833333 0.195090 0.980785
v 0.625000 0.195090 0.980785
v 0.416667 0.195090 0.980785
v 0.208333 0.195090 0.980785
v 0.000000 0.195090 0.980785
v 2.291667 0.382683 0.923879
v 2.083333 0.382683 0.923879
v 1.875000 0.382683 0.923879
v 1.666667 0.382683 0.923879
v 1.458333 0.382683 0.923879
v 1.250000 0.382683 0.923879
v 1.041667 0.382683 0.923879
v 0.833333 0.382683 0.923879
v 0.625000 0.382683 0.923880
v 0.416667 0.382683 0.923880
v 0.208333 0.382683 0.923880
v 0.000000 0.382683 0.923880
v 2.291667 0.555570 0.831469
v 2.083333 0.555570 0.831469
v 1.875000 0.555570 0.831470
v 1.666667 0.555570 0.831470
v 1.458333 0.555570 0.831470
v 1.250000 0.555570 0.831470
v 1.041667 0.555570 0.831470
v 0.833333 0.555570 0.831470
v 0.625000 0.555570 0.831470
v 0.416667 0.555570 0.831470
v 0.208333 0.555570 0.831470
v 0.000000 0.555570 0.831470
v 2.291667 0.707107 0.707107
v 2.083333 0.707107 0.707107
v 1.875000 0.707107 0.707107
v 1.666667 0.707107 0.707107
v 1.458333 0.707107 0.707107
v 1.250000 0.707107 0.707107
v 1.041667 0.707107 0.707107
v 0.833333 0.707107 0.707107
v 0.625000 0.707107 0.707107
v 0.416667 0.707107 0.707107
v 0.208333 0.707107 0.707107
v 0.000000 0.707107 0.707107
v 2.291667 0.831470 0.555570
v 2.083333 0.831470 0.555570
v 1.875000 0.831470 0.555570
v 1.666667 0.831470 0.555570
v 1.458333 0.831470 0.555570
v 1.250000 0.831470 0.555570
v 1.041667 0.831470 0.555570
v 0.833333 0.831470 0.555570
v 0.625000 0.831470 0.555570
v 0.416667 0.831470 0.555570
v 0.208333 0.831470 0.555570
v 0.000000 0.831470 0.555570
v 2.291667 0.923880 0.382683
v 2.083333 0.923880 0.382683
v 1.875000 0.923880 0.382683
v 1.666667 0.923880 0.382683
v 1.458333 0.923880 0.382683
v 1.250000 0.923880 0.382683
v 1.041667 0.923880 0.382683
v 0.833333 0.923880 0.382683
v 0.625000 0.923880 0.382683
v 0.416667 0.923880 0.382683
v 0.208333 0.923880 0.382683
v 0.000000 0.923880 0.382683
v 2.291667 0.980785 0.195090
v 2.083333 0.980785 0.195090
v 1.875000 0.980785 0.195090
v 1.666667 0.980785 0.195090
v 1.458333 0.980785 0.195090
v 1.250000 0.980785 0.195090
v 1.041667 0.980785 0.195090
v 0.833333 0.980785 0.195090
v 0.625000 0.980785 0.195090
v 0.416667 0.980785 0.195090
v 0.208333 0.980785 0.195090
v -0.000000 0.980785 0.195090
vn -0.0000 -0.9952 -0.0980
vn -0.0000 -0.9569 -0.2903
vn -0.0000 -0.8819 -0.4714
vn -0.0000 -0.7730 -0.6344
vn -0.0000 -0.6344 -0.7730
vn -0.0000 -0.4714 -0.8819
vn -0.0000 -0.2903 -0.9569
vn -0.0000 -0.0980 -0.9952
vn -0.0000 0.0980 -0.9952
vn -0.0000 0.4714 -0.8819
vn -0.0000 0.6344 -0.7730
vn -0.0000 0.7730 -0.6344
vn -0.0000 0.8819 -0.4714
vn -0.0000 0.9569 -0.2903
vn -0.0000 0.9952 -0.0980
vn -0.0000 0.9952 0.0980
vn -0.0000 0.9569 0.2903
vn -0.0000 0.8819 0.4714
vn -0.0000 0.7730 0.6344
vn -0.0000 0.6344 0.7730
vn -0.0000 0.4714 0.8819
vn -0.0000 0.2903 0.9569
vn -0.0000 0.0980 0.9952
vn -0.0000 -0.0980 0.9952
vn -0.0000 -0.2903 0.9569
vn -0.0000 -0.4714 0.8819
vn -0.0000 -0.6344 0.7730
vn -0.0000 -0.7730 0.6344
vn -0.0000 -0.8819 0.4714
vn -0.0000 -0.9569 0.2903
vn -0.0000 -0.9952 0.0980
vn -0.0000 0.2903 -0.9569
vt 0.439575 0.238532
vt 0.417225 0.183864
vt 0.468665 0.162834
vt 0.491015 0.217501
vt 0.520105 0.141803
vt 0.542455 0.196471
vt 0.571546 0.120773
vt 0.593896 0.175440
vt 0.622986 0.099742
vt 0.645336 0.154410
vt 0.674426 0.078712
vt 0.696776 0.133379
vt 0.725867 0.057681
vt 0.748217 0.112349
vt 0.777307 0.036651
vt 0.799657 0.091318
vt 0.828748 0.015620
vt 0.432726 0.075636
vt 0.489157 0.075636
vt 0.489157 0.128736
vt 0.432726 0.181836
vt 0.489157 0.181836
vt 0.489157 0.234936
vt 0.432726 0.234936
vt 0.489157 0.288036
vt 0.432726 0.288036
vt 0.489157 0.341136
vt 0.432726 0.341136
vt 0.489157 0.394236
vt 0.432726 0.394236
vt 0.489157 0.447336
vt 0.432726 0.447336
vt 0.489157 0.500436
vt 0.432726 0.500436
vt 0.489157 0.553536
vt 0.432726 0.553536
vt 0.489157 0.606635
vt 0.432726 0.606635
vt 0.489157 0.659735
vt 0.432726 0.659735
vt 0.489157 0.712835
vt 0.432726 0.712835
vt 0.489157 0.765935
vt 0.432726 0.765935
vt 0.489157 0.819035
vt 0.432726 0.819035
vt 0.489157 0.872135
vt 0.432726 0.872135
vt 0.489157 0.925235
vt 0.028052 0.406775
vt 0.005702 0.352108
vt 0.057142 0.331077
vt 0.079492 0.385745
vt 0.108582 0.310047
vt 0.130932 0.364714
vt 0.160023 0.289016
vt 0.182373 0.343684
vt 0.211463 0.267986
vt 0.233813 0.322654
vt 0.262904 0.246955
vt 0.285253 0.301623
vt 0.314344 0.225925
vt 0.336694 0.280593
vt 0.365784 0.204894
vt 0.388134 0.259562
vt 0.432726 0.128736
vt 0.649845 0.160846
vt 0.704390 0.160846
vt 0.704390 0.212172
vt 0.758935 0.160846
vt 0.758935 0.212171
vt 0.813480 0.160846
vt 0.813480 0.212171
vt 0.868026 0.160846
vt 0.868026 0.212172
vt 0.922571 0.160846
vt 0.922571 0.212171
vt 0.977116 0.160846
vt 0.977116 0.212171
vt 0.150569 0.128736
vt 0.207000 0.128736
vt 0.207000 0.181836
vt 0.263431 0.128736
vt 0.263431 0.181836
vt 0.319863 0.128736
vt 0.319863 0.181836
vt 0.376294 0.128736
vt 0.376294 0.181836
vt 0.608054 0.545313
vt 0.567510 0.582896
vt 0.568113 0.502225
vt 0.606847 0.706656
vt 0.566906 0.663568
vt 0.607451 0.625985
vt 0.526965 0.620479
vt 0.487024 0.577391
vt 0.527569 0.539808
vt 0.447083 0.534303
vt 0.487628 0.496720
vt 0.407142 0.491215
vt 0.447686 0.453631
vt 0.367201 0.448126
vt 0.407745 0.410543
vt 0.499884 0.532901
vt 0.477534 0.478233
vt 0.528974 0.457202
vt 0.455184 0.423565
vt 0.506624 0.402535
vt 0.432834 0.368897
vt 0.484274 0.347867
vt 0.410484 0.314230
vt 0.461924 0.293199
vt 0.566303 0.744239
vt 0.526362 0.701151
vt 0.486420 0.658063
vt 0.446479 0.614974
vt 0.406538 0.571886
vt 0.366597 0.528798
vt 0.326656 0.485709
vt 0.448443 0.553931
vt 0.426093 0.499263
vt 0.403744 0.444596
vt 0.381394 0.389928
vt 0.359044 0.335260
vt 0.525758 0.781822
vt 0.485817 0.738734
vt 0.445876 0.695646
vt 0.405935 0.652557
vt 0.365994 0.609469
vt 0.326053 0.566381
vt 0.286112 0.523292
vt 0.397003 0.574962
vt 0.374653 0.520294
vt 0.352303 0.465626
vt 0.329953 0.410958
vt 0.307603 0.356291
vt 0.485214 0.819405
vt 0.445272 0.776317
vt 0.405331 0.733229
vt 0.365390 0.690140
vt 0.325449 0.647052
vt 0.285508 0.603964
vt 0.245567 0.560876
vt 0.345563 0.595992
vt 0.323213 0.541324
vt 0.300863 0.486657
vt 0.278513 0.431989
vt 0.256163 0.377321
vt 0.444669 0.856989
vt 0.404728 0.813900
vt 0.364787 0.770812
vt 0.324846 0.727724
vt 0.284905 0.684635
vt 0.244964 0.641547
vt 0.205023 0.598459
vt 0.294122 0.617023
vt 0.271772 0.562355
vt 0.249422 0.507687
vt 0.227073 0.453019
vt 0.204723 0.398352
vt 0.404124 0.894572
vt 0.364183 0.851483
vt 0.324242 0.808395
vt 0.284301 0.765307
vt 0.244360 0.722218
vt 0.204419 0.679130
vt 0.164478 0.636042
vt 0.242682 0.638053
vt 0.220332 0.583385
vt 0.197982 0.528718
vt 0.175632 0.474050
vt 0.153282 0.419382
vt 0.363580 0.932155
vt 0.323639 0.889066
vt 0.283698 0.845978
vt 0.243757 0.802890
vt 0.203816 0.759802
vt 0.163875 0.716713
vt 0.123934 0.673625
vt 0.191242 0.659083
vt 0.168892 0.604416
vt 0.146542 0.549748
vt 0.124192 0.495080
vt 0.101842 0.440413
vt 0.323035 0.969738
vt 0.283094 0.926650
vt 0.243153 0.883561
vt 0.203212 0.840473
vt 0.163271 0.797385
vt 0.123330 0.754296
vt 0.083389 0.711208
vt 0.139801 0.680114
vt 0.117451 0.625446
vt 0.095101 0.570778
vt 0.072751 0.516111
vt 0.050402 0.461443
vt 0.649845 0.879397
vt 0.704390 0.879397
vt 0.704390 0.930722
vt 0.758935 0.879397
vt 0.758935 0.930722
vt 0.813480 0.879397
vt 0.813480 0.930722
vt 0.868026 0.879397
vt 0.868026 0.930722
vt 0.922571 0.879397
vt 0.922571 0.930722
vt 0.977116 0.879397
vt 0.977116 0.930722
vt 0.150569 0.872135
vt 0.207000 0.872135
vt 0.207000 0.925235
vt 0.263432 0.872135
vt 0.263432 0.925235
vt 0.319863 0.872135
vt 0.319863 0.925235
vt 0.376294 0.872135
vt 0.376294 0.925235
vt 0.432726 0.925235
vt 0.649845 0.828072
vt 0.704390 0.828072
vt 0.758935 0.828072
vt 0.813480 0.828072
vt 0.868026 0.828072
vt 0.922571 0.828072
vt 0.977116 0.828072
vt 0.150569 0.819035
vt 0.207000 0.819035
vt 0.263432 0.819035
vt 0.319863 0.819035
vt 0.376294 0.819035
vt 0.649845 0.776747
vt 0.704390 0.776747
vt 0.758935 0.776747
vt 0.813480 0.776747
vt 0.868026 0.776747
vt 0.922571 0.776747
vt 0.977116 0.776747
vt 0.150569 0.765935
vt 0.207000 0.765935
vt 0.263432 0.765935
vt 0.319863 0.765935
vt 0.376294 0.765935
vt 0.649845 0.725422
vt 0.704390 0.725422
vt 0.758935 0.725422
vt 0.813480 0.725422
vt 0.868026 0.725422
vt 0.922571 0.725422
vt 0.977116 0.725422
vt 0.150569 0.712835
vt 0.207000 0.712835
vt 0.263432 0.712835
vt 0.319863 0.712835
vt 0.376294 0.712835
vt 0.649845 0.674097
vt 0.704390 0.674097
vt 0.758935 0.674097
vt 0.813480 0.674097
vt 0.868026 0.674097
vt 0.922571 0.674097
vt 0.977116 0.674097
vt 0.150569 0.659735
vt 0.207000 0.659735
vt 0.263432 0.659735
vt 0.319863 0.659735
vt 0.376294 0.659735
vt 0.649845 0.622772
vt 0.704390 0.622772
vt 0.758935 0.622772
vt 0.813480 0.622772
vt 0.868026 0.622772
vt 0.922571 0.622772
vt 0.977116 0.622772
vt 0.150569 0.606635
vt 0.207000 0.606635
vt 0.263432 0.606635
vt 0.319863 0.606635
vt 0.376294 0.606635
vt 0.649845 0.571447
vt 0.704390 0.571447
vt 0.758935 0.571447
vt 0.813480 0.571447
vt 0.868026 0.571447
vt 0.922571 0.571447
vt 0.977116 0.571447
vt 0.150569 0.553536
vt 0.207000 0.553536
vt 0.263432 0.553536
vt 0.319863 0.553536
vt 0.376294 0.553536
vt 0.649845 0.520122
vt 0.704390 0.520122
vt 0.758935 0.520122
vt 0.813480 0.520122
vt 0.868026 0.520122
vt 0.922571 0.520122
vt 0.977116 0.520122
vt 0.150569 0.500436
vt 0.207000 0.500436
vt 0.263432 0.500436
vt 0.319863 0.500436
vt 0.376294 0.500436
vt 0.649845 0.468797
vt 0.704390 0.468797
vt 0.758935 0.468797
vt 0.813480 0.468797
vt 0.868026 0.468797
vt 0.922571 0.468797
vt 0.977116 0.468797
vt 0.150569 0.447336
vt 0.207000 0.447336
vt 0.263432 0.447336
vt 0.319863 0.447336
vt 0.376294 0.447336
vt 0.649845 0.417472
vt 0.704390 0.417472
vt 0.758935 0.417472
vt 0.813480 0.417472
vt 0.868026 0.417472
vt 0.922571 0.417472
vt 0.977116 0.417472
vt 0.150569 0.394236
vt 0.207000 0.394236
vt 0.263431 0.394236
vt 0.319863 0.394236
vt 0.376294 0.394236
vt 0.649845 0.366147
vt 0.704390 0.366147
vt 0.758935 0.366147
vt 0.813480 0.366147
vt 0.868026 0.366147
vt 0.922571 0.366147
vt 0.977116 0.366147
vt 0.150569 0.341136
vt 0.207000 0.341136
vt 0.263431 0.341136
vt 0.319863 0.341136
vt 0.376294 0.341136
vt 0.649845 0.314822
vt 0.704390 0.314822
vt 0.758935 0.314822
vt 0.813480 0.314822
vt 0.868026 0.314822
vt 0.922571 0.314822
vt 0.977116 0.314822
vt 0.150569 0.288036
vt 0.207000 0.288036
vt 0.263431 0.288036
vt 0.319863 0.288036
vt 0.376294 0.288036
vt 0.649845 0.263497
vt 0.704390 0.263497
vt 0.758935 0.263497
vt 0.813480 0.263497
vt 0.868026 0.263497
vt 0.922571 0.263497
vt 0.977116 0.263497
vt 0.150569 0.234936
vt 0.207000 0.234936
vt 0.263431 0.234936
vt 0.319863 0.234936
vt 0.376294 0.234936
vt 0.649845 0.212172
vt 0.150569 0.181836
vt 0.649845 0.109521
vt 0.704390 0.109521
vt 0.758935 0.109521
vt 0.813480 0.109521
vt 0.868026 0.109521
vt 0.922571 0.109521
vt 0.977116 0.109521
vt 0.150569 0.075636
vt 0.207000 0.075636
vt 0.263431 0.075636
vt 0.319863 0.075636
vt 0.376294 0.075636
vt 0.931204 0.405991
vt 0.891262 0.362903
vt 0.931807 0.325320
vt 0.851321 0.319815
vt 0.891866 0.282231
vt 0.811380 0.276726
vt 0.851925 0.239143
vt 0.771439 0.233638
vt 0.811984 0.196055
vt 0.731498 0.190550
vt 0.772043 0.152967
vt 0.691557 0.147461
vt 0.732102 0.109878
vt 0.911407 0.364657
vt 0.889057 0.309989
vt 0.940497 0.288959
vt 0.866707 0.255321
vt 0.918147 0.234291
vt 0.844357 0.200654
vt 0.895797 0.179623
vt 0.822007 0.145986
vt 0.873447 0.124955
vt 0.851097 0.070288
vt 0.890659 0.443574
vt 0.850718 0.400486
vt 0.810777 0.357398
vt 0.770836 0.314309
vt 0.730895 0.271221
vt 0.690954 0.228133
vt 0.651013 0.185045
vt 0.859966 0.385687
vt 0.837616 0.331020
vt 0.815266 0.276352
vt 0.792916 0.221684
vt 0.770567 0.167016
vt 0.850114 0.481157
vt 0.810173 0.438069
vt 0.770232 0.394981
vt 0.730291 0.351892
vt 0.690350 0.308804
vt 0.650409 0.265716
vt 0.610468 0.222628
vt 0.808526 0.406718
vt 0.786176 0.352050
vt 0.763826 0.297382
vt 0.741476 0.242715
vt 0.719126 0.188047
vt 0.809570 0.518740
vt 0.769629 0.475652
vt 0.729688 0.432564
vt 0.689747 0.389476
vt 0.649806 0.346387
vt 0.609865 0.303299
vt 0.569924 0.260211
vt 0.757086 0.427748
vt 0.734736 0.373081
vt 0.712386 0.318413
vt 0.690036 0.263745
vt 0.667686 0.209077
vt 0.769025 0.556324
vt 0.729084 0.513235
vt 0.689143 0.470147
vt 0.649202 0.427059
vt 0.609261 0.383970
vt 0.569320 0.340882
vt 0.529379 0.297794
vt 0.705645 0.448779
vt 0.683295 0.394111
vt 0.660945 0.339443
vt 0.638595 0.284776
vt 0.616246 0.230108
vt 0.728481 0.593907
vt 0.688540 0.550818
vt 0.648599 0.507730
vt 0.608658 0.464642
vt 0.568717 0.421554
vt 0.528776 0.378465
vt 0.488834 0.335377
vt 0.654205 0.469809
vt 0.631855 0.415141
vt 0.609505 0.360474
vt 0.587155 0.305806
vt 0.564805 0.251138
vt 0.687936 0.631490
vt 0.647995 0.588402
vt 0.528172 0.459137
vt 0.488231 0.416048
vt 0.448290 0.372960
vt 0.602764 0.490840
vt 0.580415 0.436172
vt 0.558065 0.381504
vt 0.535715 0.326837
vt 0.513365 0.272169
vt 0.647392 0.669073
vt 0.551324 0.511870
vt 0.962847 0.343626
vt 0.649845 0.930722
vt 0.150569 0.925235
vt 0.971748 0.368408
s 0
usemtl Material.001
f 44/1/1 1/2/1 32/3/1
f 405/4/2 32/3/2 31/5/2
f 393/6/3 31/5/3 30/7/3
f 381/8/4 30/7/4 29/9/4
f 369/10/5 29/9/5 28/11/5
f 357/12/6 28/11/6 27/13/6
f 345/14/7 27/13/7 26/15/7
f 333/16/8 26/15/8 25/17/8
f 321/18/9 25/19/9 24/20/9
f 297/21/10 23/22/10 22/23/10
f 285/24/11 22/23/11 21/25/11
f 273/26/12 21/25/12 20/27/12
f 261/28/13 20/27/13 19/29/13
f 249/30/14 19/29/14 18/31/14
f 237/32/15 18/31/15 17/33/15
f 225/34/16 17/33/16 16/35/16
f 213/36/17 16/35/17 15/37/17
f 201/38/18 15/37/18 14/39/18
f 189/40/19 14/39/19 13/41/19
f 177/42/20 13/41/20 12/43/20
f 165/44/21 12/43/21 11/45/21
f 153/46/22 11/45/22 10/47/22
f 141/48/23 10/47/23 9/49/23
f 129/50/24 9/51/24 8/52/24
f 117/53/25 8/52/25 7/54/25
f 105/55/26 7/54/26 6/56/26
f 93/57/27 6/56/27 5/58/27
f 81/59/28 5/58/28 4/60/28
f 69/61/29 4/60/29 3/62/29
f 57/63/30 3/62/30 2/64/30
f 45/65/31 2/64/31 1/2/31
f 309/66/32 24/20/32 23/22/32
f 320/67/32 319/68/32 307/69/32
f 319/68/32 318/70/32 306/71/32
f 318/70/32 317/72/32 305/73/32
f 317/72/32 316/74/32 304/75/32
f 316/74/32 315/76/32 303/77/32
f 315/76/32 314/78/32 302/79/32
f 314/80/32 313/81/32 301/82/32
f 313/81/32 312/83/32 300/84/32
f 312/83/32 311/85/32 299/86/32
f 311/85/32 310/87/32 298/88/32
f 414/89/1 35/90/1 413/91/1
f 56/92/31 55/93/31 34/94/31
f 55/93/31 54/95/31 35/90/31
f 54/95/31 53/96/31 36/97/31
f 53/96/31 52/98/31 37/99/31
f 52/98/31 51/100/31 38/101/31
f 51/100/31 50/102/31 39/103/31
f 50/104/31 49/105/31 40/106/31
f 49/105/31 48/107/31 41/108/31
f 48/107/31 47/109/31 42/110/31
f 47/109/31 46/111/31 43/112/31
f 46/111/31 45/65/31 44/1/31
f 68/113/30 67/114/30 55/93/30
f 67/114/30 66/115/30 54/95/30
f 66/115/30 65/116/30 53/96/30
f 65/116/30 64/117/30 52/98/30
f 64/117/30 63/118/30 51/100/30
f 63/118/30 62/119/30 50/102/30
f 62/120/30 61/121/30 49/105/30
f 61/121/30 60/122/30 48/107/30
f 60/122/30 59/123/30 47/109/30
f 59/123/30 58/124/30 46/111/30
f 58/124/30 57/63/30 45/65/30
f 80/125/29 79/126/29 67/114/29
f 79/126/29 78/127/29 66/115/29
f 78/127/29 77/128/29 65/116/29
f 77/128/29 76/129/29 64/117/29
f 76/129/29 75/130/29 63/118/29
f 75/130/29 74/131/29 62/119/29
f 74/132/29 73/133/29 61/121/29
f 73/133/29 72/134/29 60/122/29
f 72/134/29 71/135/29 59/123/29
f 71/135/29 70/136/29 58/124/29
f 70/136/29 69/61/29 57/63/29
f 92/137/28 91/138/28 79/126/28
f 91/138/28 90/139/28 78/127/28
f 90/139/28 89/140/28 77/128/28
f 89/140/28 88/141/28 76/129/28
f 88/141/28 87/142/28 75/130/28
f 87/142/28 86/143/28 74/131/28
f 86/144/28 85/145/28 73/133/28
f 85/145/28 84/146/28 72/134/28
f 84/146/28 83/147/28 71/135/28
f 83/147/28 82/148/28 70/136/28
f 82/148/28 81/59/28 69/61/28
f 104/149/27 103/150/27 91/138/27
f 103/150/27 102/151/27 90/139/27
f 102/151/27 101/152/27 89/140/27
f 101/152/27 100/153/27 88/141/27
f 100/153/27 99/154/27 87/142/27
f 99/154/27 98/155/27 86/143/27
f 98/156/27 97/157/27 85/145/27
f 97/157/27 96/158/27 84/146/27
f 96/158/27 95/159/27 83/147/27
f 95/159/27 94/160/27 82/148/27
f 94/160/27 93/57/27 81/59/27
f 116/161/26 115/162/26 103/150/26
f 115/162/26 114/163/26 102/151/26
f 114/163/26 113/164/26 101/152/26
f 113/164/26 112/165/26 100/153/26
f 112/165/26 111/166/26 99/154/26
f 111/166/26 110/167/26 98/155/26
f 110/168/26 109/169/26 97/157/26
f 109/169/26 108/170/26 96/158/26
f 108/170/26 107/171/26 95/159/26
f 107/171/26 106/172/26 94/160/26
f 106/172/26 105/55/26 93/57/26
f 128/173/25 127/174/25 115/162/25
f 127/174/25 126/175/25 114/163/25
f 126/175/25 125/176/25 113/164/25
f 125/176/25 124/177/25 112/165/25
f 124/177/25 123/178/25 111/166/25
f 123/178/25 122/179/25 110/167/25
f 122/180/25 121/181/25 109/169/25
f 121/181/25 120/182/25 108/170/25
f 120/182/25 119/183/25 107/171/25
f 119/183/25 118/184/25 106/172/25
f 118/184/25 117/53/25 105/55/25
f 140/185/24 139/186/24 127/174/24
f 139/186/24 138/187/24 126/175/24
f 138/187/24 137/188/24 125/176/24
f 137/188/24 136/189/24 124/177/24
f 136/189/24 135/190/24 123/178/24
f 135/190/24 134/191/24 122/179/24
f 134/192/24 133/193/24 121/181/24
f 133/193/24 132/194/24 120/182/24
f 132/194/24 131/195/24 119/183/24
f 131/195/24 130/196/24 118/184/24
f 130/196/24 129/50/24 117/53/24
f 152/197/23 151/198/23 139/199/23
f 151/198/23 150/200/23 138/201/23
f 150/200/23 149/202/23 137/203/23
f 149/202/23 148/204/23 136/205/23
f 148/204/23 147/206/23 135/207/23
f 147/206/23 146/208/23 134/209/23
f 146/210/23 145/211/23 133/212/23
f 145/211/23 144/213/23 132/214/23
f 144/213/23 143/215/23 131/216/23
f 143/215/23 142/217/23 130/218/23
f 142/217/23 141/48/23 129/219/23
f 164/220/22 163/221/22 151/198/22
f 163/221/22 162/222/22 150/200/22
f 162/222/22 161/223/22 149/202/22
f 161/223/22 160/224/22 148/204/22
f 160/224/22 159/225/22 147/206/22
f 159/225/22 158/226/22 146/208/22
f 158/227/22 157/228/22 145/211/22
f 157/228/22 156/229/22 144/213/22
f 156/229/22 155/230/22 143/215/22
f 155/230/22 154/231/22 142/217/22
f 154/231/22 153/46/22 141/48/22
f 176/232/21 175/233/21 163/221/21
f 175/233/21 174/234/21 162/222/21
f 174/234/21 173/235/21 161/223/21
f 173/235/21 172/236/21 160/224/21
f 172/236/21 171/237/21 159/225/21
f 171/237/21 170/238/21 158/226/21
f 170/239/21 169/240/21 157/228/21
f 169/240/21 168/241/21 156/229/21
f 168/241/21 167/242/21 155/230/21
f 167/242/21 166/243/21 154/231/21
f 166/243/21 165/44/21 153/46/21
f 188/244/20 187/245/20 175/233/20
f 187/245/20 186/246/20 174/234/20
f 186/246/20 185/247/20 173/235/20
f 185/247/20 184/248/20 172/236/20
f 184/248/20 183/249/20 171/237/20
f 183/249/20 182/250/20 170/238/20
f 182/251/20 181/252/20 169/240/20
f 181/252/20 180/253/20 168/241/20
f 180/253/20 179/254/20 167/242/20
f 179/254/20 178/255/20 166/243/20
f 178/255/20 177/42/20 165/44/20
f 200/256/19 199/257/19 187/245/19
f 199/257/19 198/258/19 186/246/19
f 198/258/19 197/259/19 185/247/19
f 197/259/19 196/260/19 184/248/19
f 196/260/19 195/261/19 183/249/19
f 195/261/19 194/262/19 182/250/19
f 194/263/19 193/264/19 181/252/19
f 193/264/19 192/265/19 180/253/19
f 192/265/19 191/266/19 179/254/19
f 191/266/19 190/267/19 178/255/19
f 190/267/19 189/40/19 177/42/19
f 212/268/18 211/269/18 199/257/18
f 211/269/18 210/270/18 198/258/18
f 210/270/18 209/271/18 197/259/18
f 209/271/18 208/272/18 196/260/18
f 208/272/18 207/273/18 195/261/18
f 207/273/18 206/274/18 194/262/18
f 206/275/18 205/276/18 193/264/18
f 205/276/18 204/277/18 192/265/18
f 204/277/18 203/278/18 191/266/18
f 203/278/18 202/279/18 190/267/18
f 202/279/18 201/38/18 189/40/18
f 224/280/17 223/281/17 211/269/17
f 223/281/17 222/282/17 210/270/17
f 222/282/17 221/283/17 209/271/17
f 221/283/17 220/284/17 208/272/17
f 220/284/17 219/285/17 207/273/17
f 219/285/17 218/286/17 206/274/17
f 218/287/17 217/288/17 205/276/17
f 217/288/17 216/289/17 204/277/17
f 216/289/17 215/290/17 203/278/17
f 215/290/17 214/291/17 202/279/17
f 214/291/17 213/36/17 201/38/17
f 236/292/16 235/293/16 223/281/16
f 235/293/16 234/294/16 222/282/16
f 234/294/16 233/295/16 221/283/16
f 233/295/16 232/296/16 220/284/16
f 232/296/16 231/297/16 219/285/16
f 231/297/16 230/298/16 218/286/16
f 230/299/16 229/300/16 217/288/16
f 229/300/16 228/301/16 216/289/16
f 228/301/16 227/302/16 215/290/16
f 227/302/16 226/303/16 214/291/16
f 226/303/16 225/34/16 213/36/16
f 248/304/15 247/305/15 235/293/15
f 247/305/15 246/306/15 234/294/15
f 246/306/15 245/307/15 233/295/15
f 245/307/15 244/308/15 232/296/15
f 244/308/15 243/309/15 231/297/15
f 243/309/15 242/310/15 230/298/15
f 242/311/15 241/312/15 229/300/15
f 241/312/15 240/313/15 228/301/15
f 240/313/15 239/314/15 227/302/15
f 239/314/15 238/315/15 226/303/15
f 238/315/15 237/32/15 225/34/15
f 260/316/14 259/317/14 247/305/14
f 259/317/14 258/318/14 246/306/14
f 258/318/14 257/319/14 245/307/14
f 257/319/14 256/320/14 244/308/14
f 256/320/14 255/321/14 243/309/14
f 255/321/14 254/322/14 242/310/14
f 254/323/14 253/324/14 241/312/14
f 253/324/14 252/325/14 240/313/14
f 252/325/14 251/326/14 239/314/14
f 251/326/14 250/327/14 238/315/14
f 250/327/14 249/30/14 237/32/14
f 272/328/13 271/329/13 259/317/13
f 271/329/13 270/330/13 258/318/13
f 270/330/13 269/331/13 257/319/13
f 269/331/13 268/332/13 256/320/13
f 268/332/13 267/333/13 255/321/13
f 267/333/13 266/334/13 254/322/13
f 266/335/13 265/336/13 253/324/13
f 265/336/13 264/337/13 252/325/13
f 264/337/13 263/338/13 251/326/13
f 263/338/13 262/339/13 250/327/13
f 262/339/13 261/28/13 249/30/13
f 284/340/12 283/341/12 271/329/12
f 283/341/12 282/342/12 270/330/12
f 282/342/12 281/343/12 269/331/12
f 281/343/12 280/344/12 268/332/12
f 280/344/12 279/345/12 267/333/12
f 279/345/12 278/346/12 266/334/12
f 278/347/12 277/348/12 265/336/12
f 277/348/12 276/349/12 264/337/12
f 276/349/12 275/350/12 263/338/12
f 275/350/12 274/351/12 262/339/12
f 274/351/12 273/26/12 261/28/12
f 296/352/11 295/353/11 283/341/11
f 295/353/11 294/354/11 282/342/11
f 294/354/11 293/355/11 281/343/11
f 293/355/11 292/356/11 280/344/11
f 292/356/11 291/357/11 279/345/11
f 291/357/11 290/358/11 278/346/11
f 290/359/11 289/360/11 277/348/11
f 289/360/11 288/361/11 276/349/11
f 288/361/11 287/362/11 275/350/11
f 287/362/11 286/363/11 274/351/11
f 286/363/11 285/24/11 273/26/11
f 308/364/10 307/69/10 295/353/10
f 307/69/10 306/71/10 294/354/10
f 306/71/10 305/73/10 293/355/10
f 305/73/10 304/75/10 292/356/10
f 304/75/10 303/77/10 291/357/10
f 303/77/10 302/79/10 290/358/10
f 302/365/10 301/82/10 289/360/10
f 301/82/10 300/84/10 288/361/10
f 300/84/10 299/86/10 287/362/10
f 299/86/10 298/88/10 286/363/10
f 298/88/10 297/21/10 285/24/10
f 332/366/9 331/367/9 319/68/9
f 331/367/9 330/368/9 318/70/9
f 330/368/9 329/369/9 317/72/9
f 329/369/9 328/370/9 316/74/9
f 328/370/9 327/371/9 315/76/9
f 327/371/9 326/372/9 314/78/9
f 326/373/9 325/374/9 313/81/9
f 325/374/9 324/375/9 312/83/9
f 324/375/9 323/376/9 311/85/9
f 323/376/9 322/377/9 310/87/9
f 322/377/9 321/18/9 309/66/9
f 344/378/8 343/379/8 331/380/8
f 343/379/8 342/381/8 330/382/8
f 342/381/8 341/383/8 329/384/8
f 341/383/8 340/385/8 328/386/8
f 340/385/8 339/387/8 327/388/8
f 339/387/8 338/389/8 326/390/8
f 338/391/8 337/392/8 325/393/8
f 337/392/8 336/394/8 324/395/8
f 336/394/8 335/396/8 323/397/8
f 335/396/8 334/398/8 322/399/8
f 334/398/8 333/16/8 321/400/8
f 356/401/7 355/402/7 343/379/7
f 355/402/7 354/403/7 342/381/7
f 354/403/7 353/404/7 341/383/7
f 353/404/7 352/405/7 340/385/7
f 352/405/7 351/406/7 339/387/7
f 351/406/7 350/407/7 338/389/7
f 350/408/7 349/409/7 337/392/7
f 349/409/7 348/410/7 336/394/7
f 348/410/7 347/411/7 335/396/7
f 347/411/7 346/412/7 334/398/7
f 346/412/7 345/14/7 333/16/7
f 368/413/6 367/414/6 355/402/6
f 367/414/6 366/415/6 354/403/6
f 366/415/6 365/416/6 353/404/6
f 365/416/6 364/417/6 352/405/6
f 364/417/6 363/418/6 351/406/6
f 363/418/6 362/419/6 350/407/6
f 362/420/6 361/421/6 349/409/6
f 361/421/6 360/422/6 348/410/6
f 360/422/6 359/423/6 347/411/6
f 359/423/6 358/424/6 346/412/6
f 358/424/6 357/12/6 345/14/6
f 380/425/5 379/426/5 367/414/5
f 379/426/5 378/427/5 366/415/5
f 378/427/5 377/428/5 365/416/5
f 377/428/5 376/429/5 364/417/5
f 376/429/5 375/430/5 363/418/5
f 375/430/5 374/431/5 362/419/5
f 374/432/5 373/433/5 361/421/5
f 373/433/5 372/434/5 360/422/5
f 372/434/5 371/435/5 359/423/5
f 371/435/5 370/436/5 358/424/5
f 370/436/5 369/10/5 357/12/5
f 392/437/4 391/438/4 379/426/4
f 391/438/4 390/439/4 378/427/4
f 390/439/4 389/440/4 377/428/4
f 389/440/4 388/441/4 376/429/4
f 388/441/4 387/442/4 375/430/4
f 387/442/4 386/443/4 374/431/4
f 386/444/4 385/445/4 373/433/4
f 385/445/4 384/446/4 372/434/4
f 384/446/4 383/447/4 371/435/4
f 383/447/4 382/448/4 370/436/4
f 382/448/4 381/8/4 369/10/4
f 404/449/3 403/450/3 391/438/3
f 403/450/3 402/451/3 390/439/3
f 402/451/3 401/452/3 389/440/3
f 401/452/3 400/453/3 388/441/3
f 400/453/3 399/454/3 387/442/3
f 399/454/3 398/455/3 386/443/3
f 398/456/3 397/457/3 385/445/3
f 397/457/3 396/458/3 384/446/3
f 396/458/3 395/459/3 383/447/3
f 395/459/3 394/460/3 382/448/3
f 394/460/3 393/6/3 381/8/3
f 416/461/2 415/462/2 403/450/2
f 415/462/2 414/89/2 402/451/2
f 414/89/2 413/91/2 401/452/2
f 413/91/2 412/463/2 400/453/2
f 412/463/2 411/464/2 399/454/2
f 411/464/2 410/465/2 398/455/2
f 410/466/2 409/467/2 397/457/2
f 409/467/2 408/468/2 396/458/2
f 408/468/2 407/469/2 395/459/2
f 407/469/2 406/470/2 394/460/2
f 406/470/2 405/4/2 393/6/2
f 33/471/1 34/94/1 415/462/1
f 34/94/1 35/90/1 414/89/1
f 35/90/1 36/97/1 413/91/1
f 36/97/1 37/99/1 412/463/1
f 37/99/1 38/101/1 411/464/1
f 38/101/1 39/103/1 410/465/1
f 39/472/1 40/106/1 409/467/1
f 40/106/1 41/108/1 408/468/1
f 41/108/1 42/110/1 407/469/1
f 42/110/1 43/112/1 406/470/1
f 43/112/1 44/1/1 405/4/1
f 237/32/14 249/30/14 18/31/14
f 249/30/13 261/28/13 19/29/13
f 262/339/12 274/351/12 261/28/12
f 275/350/11 287/362/11 274/351/11
f 288/361/10 300/84/10 287/362/10
f 301/82/32 313/81/32 300/84/32
f 314/80/9 326/373/9 313/81/9
f 327/388/8 339/387/8 326/390/8
f 340/385/7 352/405/7 339/387/7
f 353/404/6 365/416/6 352/405/6
f 366/415/5 378/427/5 365/416/5
f 379/426/4 391/438/4 378/427/4
f 392/437/3 404/449/3 391/438/3
f 250/327/13 262/339/13 249/30/13
f 263/338/12 275/350/12 262/339/12
f 276/349/11 288/361/11 275/350/11
f 289/360/10 301/82/10 288/361/10
f 302/365/32 314/80/32 301/82/32
f 315/76/9 327/371/9 314/78/9
f 328/386/8 340/385/8 327/388/8
f 341/383/7 353/404/7 340/385/7
f 354/403/6 366/415/6 353/404/6
f 367/414/5 379/426/5 366/415/5
f 380/425/4 392/437/4 379/426/4
f 404/449/2 416/461/2 403/450/2
f 391/438/3 403/450/3 390/439/3
f 378/427/4 390/439/4 377/428/4
f 365/416/5 377/428/5 364/417/5
f 352/405/6 364/417/6 351/406/6
f 339/387/7 351/406/7 338/389/7
f 326/473/8 338/391/8 325/393/8
f 313/81/9 325/374/9 312/83/9
f 300/84/32 312/83/32 299/86/32
f 287/362/10 299/86/10 286/363/10
f 274/351/11 286/363/11 273/26/11
f 261/28/12 273/26/12 20/27/12
f 416/461/1 33/471/1 415/462/1
f 403/450/2 415/462/2 402/451/2
f 390/439/3 402/451/3 389/440/3
f 377/428/4 389/440/4 376/429/4
f 364/417/5 376/429/5 363/418/5
f 351/406/6 363/418/6 350/407/6
f 338/391/7 350/408/7 337/392/7
f 325/393/8 337/392/8 324/395/8
f 312/83/9 324/375/9 311/85/9
f 299/86/32 311/85/32 298/88/32
f 286/363/10 298/88/10 285/24/10
f 273/26/11 285/24/11 21/25/11
f 33/471/31 56/92/31 34/94/31
f 415/462/1 34/94/1 414/89/1
f 402/451/2 414/89/2 401/452/2
f 389/440/3 401/452/3 388/441/3
f 376/429/4 388/441/4 375/430/4
f 363/418/5 375/430/5 362/419/5
f 350/408/6 362/420/6 349/409/6
f 337/392/7 349/409/7 336/394/7
f 324/395/8 336/394/8 323/397/8
f 311/85/9 323/376/9 310/87/9
f 310/87/32 309/66/32 297/21/32
f 285/24/10 297/21/10 22/23/10
f 34/94/31 55/93/31 35/90/31
f 56/92/30 68/113/30 55/93/30
f 298/88/32 310/87/32 297/21/32
f 401/452/2 413/91/2 400/453/2
f 388/441/3 400/453/3 387/442/3
f 375/430/4 387/442/4 374/431/4
f 362/420/5 374/432/5 361/421/5
f 349/409/6 361/421/6 348/410/6
f 336/394/7 348/410/7 335/396/7
f 323/397/8 335/396/8 322/399/8
f 310/87/9 322/377/9 309/66/9
f 297/21/32 309/66/32 23/22/32
f 309/66/9 321/18/9 24/20/9
f 322/399/8 334/398/8 321/400/8
f 335/396/7 347/411/7 334/398/7
f 348/410/6 360/422/6 347/411/6
f 361/421/5 373/433/5 360/422/5
f 374/432/4 386/444/4 373/433/4
f 387/442/3 399/454/3 386/443/3
f 400/453/2 412/463/2 399/454/2
f 413/91/1 36/97/1 412/463/1
f 35/90/31 54/95/31 36/97/31
f 55/93/30 67/114/30 54/95/30
f 68/113/29 80/125/29 67/114/29
f 80/125/28 92/137/28 79/126/28
f 67/114/29 79/126/29 66/115/29
f 54/95/30 66/115/30 53/96/30
f 36/97/31 53/96/31 37/99/31
f 412/463/1 37/99/1 411/464/1
f 399/454/2 411/464/2 398/455/2
f 386/444/3 398/456/3 385/445/3
f 373/433/4 385/445/4 372/434/4
f 360/422/5 372/434/5 359/423/5
f 347/411/6 359/423/6 346/412/6
f 334/398/7 346/412/7 333/16/7
f 321/400/8 333/16/8 25/17/8
f 92/137/27 104/149/27 91/138/27
f 79/126/28 91/138/28 78/127/28
f 66/115/29 78/127/29 65/116/29
f 53/96/30 65/116/30 52/98/30
f 37/99/31 52/98/31 38/101/31
f 411/464/1 38/101/1 410/465/1
f 398/456/2 410/466/2 397/457/2
f 385/445/3 397/457/3 384/446/3
f 372/434/4 384/446/4 371/435/4
f 359/423/5 371/435/5 358/424/5
f 346/412/6 358/424/6 345/14/6
f 333/16/7 345/14/7 26/15/7
f 104/149/26 116/161/26 103/150/26
f 91/138/27 103/150/27 90/139/27
f 78/127/28 90/139/28 77/128/28
f 65/116/29 77/128/29 64/117/29
f 52/98/30 64/117/30 51/100/30
f 38/101/31 51/100/31 39/103/31
f 410/466/1 39/472/1 409/467/1
f 397/457/2 409/467/2 396/458/2
f 384/446/3 396/458/3 383/447/3
f 371/435/4 383/447/4 370/436/4
f 358/424/5 370/436/5 357/12/5
f 345/14/6 357/12/6 27/13/6
f 116/161/25 128/173/25 115/162/25
f 103/150/26 115/162/26 102/151/26
f 90/139/27 102/151/27 89/140/27
f 77/128/28 89/140/28 76/129/28
f 64/117/29 76/129/29 63/118/29
f 51/100/30 63/118/30 50/102/30
f 39/472/31 50/104/31 40/106/31
f 409/467/1 40/106/1 408/468/1
f 396/458/2 408/468/2 395/459/2
f 383/447/3 395/459/3 382/448/3
f 370/436/4 382/448/4 369/10/4
f 357/12/5 369/10/5 28/11/5
f 128/173/24 140/185/24 127/174/24
f 115/162/25 127/174/25 114/163/25
f 102/151/26 114/163/26 101/152/26
f 89/140/27 101/152/27 88/141/27
f 76/129/28 88/141/28 75/130/28
f 63/118/29 75/130/29 62/119/29
f 50/104/30 62/120/30 49/105/30
f 40/106/31 49/105/31 41/108/31
f 408/468/1 41/108/1 407/469/1
f 395/459/2 407/469/2 394/460/2
f 382/448/3 394/460/3 381/8/3
f 369/10/4 381/8/4 29/9/4
f 140/474/23 152/197/23 139/199/23
f 127/174/24 139/186/24 126/175/24
f 114/163/25 126/175/25 113/164/25
f 101/152/26 113/164/26 100/153/26
f 88/141/27 100/153/27 87/142/27
f 75/130/28 87/142/28 74/131/28
f 62/120/29 74/132/29 61/121/29
f 49/105/30 61/121/30 48/107/30
f 41/108/31 48/107/31 42/110/31
f 407/469/1 42/110/1 406/470/1
f 394/460/2 406/470/2 393/6/2
f 381/8/3 393/6/3 30/7/3
f 152/197/22 164/220/22 151/198/22
f 139/199/23 151/198/23 138/201/23
f 126/175/24 138/187/24 125/176/24
f 113/164/25 125/176/25 112/165/25
f 100/153/26 112/165/26 99/154/26
f 87/142/27 99/154/27 86/143/27
f 74/132/28 86/144/28 73/133/28
f 61/121/29 73/133/29 60/122/29
f 48/107/30 60/122/30 47/109/30
f 42/110/31 47/109/31 43/112/31
f 406/470/1 43/112/1 405/4/1
f 393/6/2 405/4/2 31/5/2
f 164/220/21 176/232/21 163/221/21
f 151/198/22 163/221/22 150/200/22
f 138/201/23 150/200/23 137/203/23
f 125/176/24 137/188/24 124/177/24
f 112/165/25 124/177/25 111/166/25
f 99/154/26 111/166/26 98/155/26
f 86/144/27 98/156/27 85/145/27
f 73/133/28 85/145/28 72/134/28
f 60/122/29 72/134/29 59/123/29
f 47/109/30 59/123/30 46/111/30
f 43/112/31 46/111/31 44/1/31
f 405/4/1 44/1/1 32/3/1
f 176/232/20 188/244/20 175/233/20
f 163/221/21 175/233/21 162/222/21
f 150/200/22 162/222/22 149/202/22
f 137/203/23 149/202/23 136/205/23
f 124/177/24 136/189/24 123/178/24
f 111/166/25 123/178/25 110/167/25
f 98/156/26 110/168/26 97/157/26
f 85/145/27 97/157/27 84/146/27
f 72/134/28 84/146/28 71/135/28
f 59/123/29 71/135/29 58/124/29
f 46/111/30 58/124/30 45/65/30
f 44/1/31 45/65/31 1/2/31
f 188/244/19 200/256/19 187/245/19
f 175/233/20 187/245/20 174/234/20
f 162/222/21 174/234/21 161/223/21
f 149/202/22 161/223/22 148/204/22
f 136/205/23 148/204/23 135/207/23
f 123/178/24 135/190/24 122/179/24
f 110/168/25 122/180/25 109/169/25
f 97/157/26 109/169/26 96/158/26
f 84/146/27 96/158/27 83/147/27
f 71/135/28 83/147/28 70/136/28
f 58/124/29 70/136/29 57/63/29
f 45/65/30 57/63/30 2/64/30
f 200/256/18 212/268/18 199/257/18
f 187/245/19 199/257/19 186/246/19
f 174/234/20 186/246/20 173/235/20
f 161/223/21 173/235/21 160/224/21
f 148/204/22 160/224/22 147/206/22
f 135/207/23 147/206/23 134/209/23
f 122/180/24 134/192/24 121/181/24
f 109/169/25 121/181/25 108/170/25
f 96/158/26 108/170/26 95/159/26
f 83/147/27 95/159/27 82/148/27
f 70/136/28 82/148/28 69/61/28
f 57/63/29 69/61/29 3/62/29
f 212/268/17 224/280/17 211/269/17
f 199/257/18 211/269/18 198/258/18
f 186/246/19 198/258/19 185/247/19
f 173/235/20 185/247/20 172/236/20
f 160/224/21 172/236/21 159/225/21
f 147/206/22 159/225/22 146/208/22
f 134/475/23 146/210/23 133/212/23
f 121/181/24 133/193/24 120/182/24
f 108/170/25 120/182/25 107/171/25
f 95/159/26 107/171/26 94/160/26
f 82/148/27 94/160/27 81/59/27
f 69/61/28 81/59/28 4/60/28
f 224/280/16 236/292/16 223/281/16
f 211/269/17 223/281/17 210/270/17
f 198/258/18 210/270/18 197/259/18
f 185/247/19 197/259/19 184/248/19
f 172/236/20 184/248/20 171/237/20
f 159/225/21 171/237/21 158/226/21
f 146/210/22 158/227/22 145/211/22
f 133/212/23 145/211/23 132/214/23
f 120/182/24 132/194/24 119/183/24
f 107/171/25 119/183/25 106/172/25
f 94/160/26 106/172/26 93/57/26
f 81/59/27 93/57/27 5/58/27
f 236/292/15 248/304/15 235/293/15
f 223/281/16 235/293/16 222/282/16
f 210/270/17 222/282/17 209/271/17
f 197/259/18 209/271/18 196/260/18
f 184/248/19 196/260/19 183/249/19
f 171/237/20 183/249/20 170/238/20
f 158/227/21 170/239/21 157/228/21
f 145/211/22 157/228/22 144/213/22
f 132/214/23 144/213/23 131/216/23
f 119/183/24 131/195/24 118/184/24
f 106/172/25 118/184/25 105/55/25
f 93/57/26 105/55/26 6/56/26
f 248/304/14 260/316/14 247/305/14
f 235/293/15 247/305/15 234/294/15
f 222/282/16 234/294/16 221/283/16
f 209/271/17 221/283/17 208/272/17
f 196/260/18 208/272/18 195/261/18
f 183/249/19 195/261/19 182/250/19
f 170/239/20 182/251/20 169/240/20
f 157/228/21 169/240/21 156/229/21
f 144/213/22 156/229/22 143/215/22
f 131/216/23 143/215/23 130/218/23
f 118/184/24 130/196/24 117/53/24
f 105/55/25 117/53/25 7/54/25
f 260/316/13 272/328/13 259/317/13
f 247/305/14 259/317/14 246/306/14
f 234/294/15 246/306/15 233/295/15
f 221/283/16 233/295/16 220/284/16
f 208/272/17 220/284/17 207/273/17
f 195/261/18 207/273/18 194/262/18
f 182/251/19 194/263/19 181/252/19
f 169/240/20 181/252/20 168/241/20
f 156/229/21 168/241/21 155/230/21
f 143/215/22 155/230/22 142/217/22
f 130/218/23 142/217/23 129/219/23
f 117/53/24 129/50/24 8/52/24
f 272/328/12 284/340/12 271/329/12
f 259/317/13 271/329/13 258/318/13
f 246/306/14 258/318/14 245/307/14
f 233/295/15 245/307/15 232/296/15
f 220/284/16 232/296/16 219/285/16
f 207/273/17 219/285/17 206/274/17
f 194/263/18 206/275/18 193/264/18
f 181/252/19 193/264/19 180/253/19
f 168/241/20 180/253/20 167/242/20
f 155/230/21 167/242/21 154/231/21
f 142/217/22 154/231/22 141/48/22
f 129/219/23 141/48/23 9/49/23
f 284/340/11 296/352/11 283/341/11
f 271/329/12 283/341/12 270/330/12
f 258/318/13 270/330/13 257/319/13
f 245/307/14 257/319/14 244/308/14
f 232/296/15 244/308/15 231/297/15
f 219/285/16 231/297/16 218/286/16
f 206/275/17 218/287/17 205/276/17
f 193/264/18 205/276/18 192/265/18
f 180/253/19 192/265/19 179/254/19
f 167/242/20 179/254/20 166/243/20
f 154/231/21 166/243/21 153/46/21
f 141/48/22 153/46/22 10/47/22
f 296/352/10 308/364/10 295/353/10
f 283/341/11 295/353/11 282/342/11
f 270/330/12 282/342/12 269/331/12
f 257/319/13 269/331/13 256/320/13
f 244/308/14 256/320/14 243/309/14
f 231/297/15 243/309/15 230/298/15
f 218/287/16 230/299/16 217/288/16
f 205/276/17 217/288/17 204/277/17
f 192/265/18 204/277/18 191/266/18
f 179/254/19 191/266/19 178/255/19
f 166/243/20 178/255/20 165/44/20
f 153/46/21 165/44/21 11/45/21
f 308/364/32 320/67/32 307/69/32
f 295/353/10 307/69/10 294/354/10
f 282/342/11 294/354/11 281/343/11
f 269/331/12 281/343/12 268/332/12
f 256/320/13 268/332/13 255/321/13
f 243/309/14 255/321/14 242/310/14
f 230/299/15 242/311/15 229/300/15
f 217/288/16 229/300/16 216/289/16
f 204/277/17 216/289/17 203/278/17
f 191/266/18 203/278/18 190/267/18
f 178/255/19 190/267/19 177/42/19
f 165/44/20 177/42/20 12/43/20
f 320/67/9 332/366/9 319/68/9
f 307/69/32 319/68/32 306/71/32
f 294/354/10 306/71/10 293/355/10
f 281/343/11 293/355/11 280/344/11
f 268/332/12 280/344/12 267/333/12
f 255/321/13 267/333/13 254/322/13
f 242/311/14 254/323/14 241/312/14
f 229/300/15 241/312/15 228/301/15
f 216/289/16 228/301/16 215/290/16
f 203/278/17 215/290/17 202/279/17
f 190/267/18 202/279/18 189/40/18
f 177/42/19 189/40/19 13/41/19
f 332/476/8 344/378/8 331/380/8
f 319/68/9 331/367/9 318/70/9
f 306/71/32 318/70/32 305/73/32
f 293/355/10 305/73/10 292/356/10
f 280/344/11 292/356/11 279/345/11
f 267/333/12 279/345/12 266/334/12
f 254/323/13 266/335/13 253/324/13
f 241/312/14 253/324/14 240/313/14
f 228/301/15 240/313/15 227/302/15
f 215/290/16 227/302/16 214/291/16
f 202/279/17 214/291/17 201/38/17
f 189/40/18 201/38/18 14/39/18
f 344/378/7 356/401/7 343/379/7
f 331/380/8 343/379/8 330/382/8
f 318/70/9 330/368/9 317/72/9
f 305/73/32 317/72/32 304/75/32
f 292/356/10 304/75/10 291/357/10
f 279/345/11 291/357/11 278/346/11
f 266/335/12 278/347/12 265/336/12
f 253/324/13 265/336/13 252/325/13
f 240/313/14 252/325/14 239/314/14
f 227/302/15 239/314/15 226/303/15
f 214/291/16 226/303/16 213/36/16
f 201/38/17 213/36/17 15/37/17
f 356/401/6 368/413/6 355/402/6
f 343/379/7 355/402/7 342/381/7
f 330/382/8 342/381/8 329/384/8
f 317/72/9 329/369/9 316/74/9
f 304/75/32 316/74/32 303/77/32
f 291/357/10 303/77/10 290/358/10
f 278/347/11 290/359/11 277/348/11
f 265/336/12 277/348/12 264/337/12
f 252/325/13 264/337/13 251/326/13
f 239/314/14 251/326/14 238/315/14
f 226/303/15 238/315/15 225/34/15
f 213/36/16 225/34/16 16/35/16
f 368/413/5 380/425/5 367/414/5
f 355/402/6 367/414/6 354/403/6
f 342/381/7 354/403/7 341/383/7
f 329/384/8 341/383/8 328/386/8
f 316/74/9 328/370/9 315/76/9
f 303/77/32 315/76/32 302/79/32
f 290/359/10 302/365/10 289/360/10
f 277/348/11 289/360/11 276/349/11
f 264/337/12 276/349/12 263/338/12
f 251/326/13 263/338/13 250/327/13
f 238/315/14 250/327/14 237/32/14
f 225/34/15 237/32/15 17/33/15
